<svg width="162" height="50" viewBox="0 0 162 50" fill="none" xmlns="http://www.w3.org/2000/svg">
<circle cx="25" cy="25" r="25" fill="#26505E"/>
<path d="M50 25C50 11.1928 38.8071 0 25 0C11.1929 0 0 11.1929 0 25C0 33.1698 3.91922 40.4242 9.97983 44.9862C11.7032 44.0682 13.2128 42.8021 14.4138 41.2806C16.2992 38.892 17.4247 35.8759 17.4247 32.5966C17.4247 27.1349 14.3035 22.4025 9.74772 20.0848V13.1577C17.9294 15.8296 23.8406 23.5227 23.8406 32.5966C23.8406 32.922 23.8321 33.2453 23.817 33.567C23.5367 39.5662 20.6705 44.889 16.3083 48.4472C19.0154 49.4511 21.9435 50 25 50C28.056 50 30.9839 49.4512 33.6909 48.4475C29.0945 44.6985 26.1593 38.9905 26.1593 32.5966C26.1593 32.2712 26.1678 31.9479 26.1829 31.6262C26.5871 22.9776 32.364 15.7337 40.2523 13.1577V20.0848C38.4319 21.011 36.841 22.3228 35.5862 23.9126C33.7008 26.3013 32.5753 29.3173 32.5753 32.5966C32.5753 37.9646 35.5905 42.6281 40.0193 44.9868C46.0805 40.4249 50 33.1703 50 25ZM25 19.0019C21.1973 19.0019 18.1146 15.9192 18.1146 12.1164C18.1146 8.31366 21.1973 5.231 25 5.231C28.8027 5.231 31.8854 8.31366 31.8854 12.1164C31.8854 15.9191 28.8028 19.0019 25 19.0019Z" fill="#CE9E6E"/>
<path d="M66.1479 35V14.42H70.1239V35H66.1479ZM78.6359 35L72.3639 26.096H76.8159L83.2839 35H78.6359ZM68.9479 28.168V24.948H74.1559C74.8839 24.948 75.5093 24.7987 76.0319 24.5C76.5733 24.2013 76.9933 23.7813 77.2919 23.24C77.5906 22.6987 77.7399 22.0827 77.7399 21.392C77.7399 20.6827 77.5906 20.0573 77.2919 19.516C76.9933 18.9747 76.5733 18.5547 76.0319 18.256C75.5093 17.9573 74.8839 17.808 74.1559 17.808H68.9479V14.42H73.7359C75.3786 14.42 76.7973 14.6627 77.9919 15.148C79.2053 15.6333 80.1386 16.3707 80.7919 17.36C81.4453 18.3493 81.7719 19.5907 81.7719 21.084V21.532C81.7719 23.044 81.4359 24.2853 80.7639 25.256C80.1106 26.2267 79.1866 26.9547 77.9919 27.44C76.7973 27.9253 75.3786 28.168 73.7359 28.168H68.9479ZM92.5228 35.532C91.2162 35.532 90.0682 35.308 89.0788 34.86C88.1082 34.412 87.2962 33.8147 86.6428 33.068C86.0082 32.3027 85.5228 31.4533 85.1868 30.52C84.8695 29.5867 84.7108 28.6347 84.7108 27.664V27.132C84.7108 26.124 84.8695 25.1533 85.1868 24.22C85.5228 23.268 86.0082 22.428 86.6428 21.7C87.2962 20.9533 88.0988 20.3653 89.0508 19.936C90.0028 19.488 91.1042 19.264 92.3548 19.264C93.9975 19.264 95.3695 19.628 96.4708 20.356C97.5908 21.0653 98.4308 22.008 98.9908 23.184C99.5508 24.3413 99.8308 25.592 99.8308 26.936V28.336H86.3628V25.956H97.3948L96.1908 27.132C96.1908 26.1613 96.0508 25.3307 95.7708 24.64C95.4908 23.9493 95.0615 23.4173 94.4828 23.044C93.9228 22.6707 93.2135 22.484 92.3548 22.484C91.4962 22.484 90.7682 22.68 90.1708 23.072C89.5735 23.464 89.1162 24.0333 88.7988 24.78C88.5002 25.508 88.3508 26.3853 88.3508 27.412C88.3508 28.364 88.5002 29.2133 88.7988 29.96C89.0975 30.688 89.5548 31.2667 90.1708 31.696C90.7868 32.1067 91.5708 32.312 92.5228 32.312C93.4748 32.312 94.2495 32.1253 94.8468 31.752C95.4442 31.36 95.8268 30.884 95.9948 30.324H99.5788C99.3548 31.3693 98.9255 32.284 98.2908 33.068C97.6562 33.852 96.8442 34.4587 95.8548 34.888C94.8842 35.3173 93.7735 35.532 92.5228 35.532ZM109.83 35.532C108.505 35.532 107.357 35.308 106.386 34.86C105.434 34.412 104.631 33.8147 103.978 33.068C103.343 32.3213 102.867 31.4813 102.55 30.548C102.233 29.6147 102.074 28.6627 102.074 27.692V27.16C102.074 26.1333 102.233 25.1533 102.55 24.22C102.886 23.268 103.381 22.428 104.034 21.7C104.687 20.9533 105.49 20.3653 106.442 19.936C107.413 19.488 108.533 19.264 109.802 19.264C111.127 19.264 112.313 19.5253 113.358 20.048C114.403 20.552 115.234 21.2613 115.85 22.176C116.485 23.0907 116.839 24.1547 116.914 25.368H113.134C113.041 24.584 112.705 23.9307 112.126 23.408C111.566 22.8853 110.791 22.624 109.802 22.624C108.943 22.624 108.225 22.8293 107.646 23.24C107.086 23.6507 106.666 24.22 106.386 24.948C106.106 25.6573 105.966 26.4787 105.966 27.412C105.966 28.308 106.097 29.12 106.358 29.848C106.638 30.576 107.058 31.1453 107.618 31.556C108.197 31.9667 108.934 32.172 109.83 32.172C110.502 32.172 111.081 32.0507 111.566 31.808C112.051 31.5653 112.434 31.2293 112.714 30.8C113.013 30.3707 113.199 29.8853 113.274 29.344H117.054C116.979 30.576 116.615 31.6587 115.962 32.592C115.327 33.5067 114.478 34.2253 113.414 34.748C112.369 35.2707 111.174 35.532 109.83 35.532ZM120.368 35V14.56H124.26V35H120.368ZM118.464 17.472V14.56H124.26V17.472H118.464ZM129.431 35V19.796H133.323V35H129.431ZM127.303 22.708V19.796H133.323V22.708H127.303ZM130.859 17.976C130.094 17.976 129.525 17.78 129.151 17.388C128.797 16.9773 128.619 16.464 128.619 15.848C128.619 15.232 128.797 14.728 129.151 14.336C129.525 13.944 130.094 13.748 130.859 13.748C131.625 13.748 132.185 13.944 132.539 14.336C132.894 14.728 133.071 15.232 133.071 15.848C133.071 16.464 132.894 16.9773 132.539 17.388C132.185 17.78 131.625 17.976 130.859 17.976ZM137.809 35V19.796H140.889V26.32H140.609C140.609 24.7707 140.814 23.4827 141.225 22.456C141.635 21.4107 142.242 20.6267 143.045 20.104C143.866 19.5813 144.883 19.32 146.097 19.32H146.265C148.075 19.32 149.447 19.908 150.381 21.084C151.314 22.2413 151.781 23.9773 151.781 26.292V35H147.889V25.956C147.889 25.0227 147.618 24.2667 147.077 23.688C146.554 23.1093 145.826 22.82 144.893 22.82C143.941 22.82 143.166 23.1187 142.569 23.716C141.99 24.2947 141.701 25.0787 141.701 26.068V35H137.809Z" fill="white"/>
<path d="M155.349 35V30.52H159.717V35H155.349Z" fill="#CE9E6E"/>
</svg>
