<svg width="40" height="40" viewBox="0 0 40 40" fill="none" xmlns="http://www.w3.org/2000/svg">
<path d="M9.59841 4.39996H30.3984C30.8779 4.41313 31.3476 4.53896 31.7695 4.76728C32.1914 4.9956 32.5537 5.32 32.827 5.71425L38.027 12.9142C38.4131 13.4599 38.6059 14.1189 38.5749 14.7866C38.5438 15.4543 38.2907 16.0925 37.8556 16.6L22.2556 34.5714C21.9885 34.9155 21.6463 35.194 21.2551 35.3856C20.8638 35.5772 20.434 35.6768 19.9984 35.6768C19.5628 35.6768 19.133 35.5772 18.7418 35.3856C18.3506 35.194 18.0083 34.9155 17.7413 34.5714L2.14127 16.6C1.70616 16.0925 1.453 15.4543 1.42194 14.7866C1.39088 14.1189 1.58372 13.4599 1.96984 12.9142L7.16984 5.71425C7.44314 5.32 7.80539 4.9956 8.22728 4.76728C8.64918 4.53896 9.11888 4.41313 9.59841 4.39996V4.39996Z" stroke="white" stroke-width="1.5" stroke-linecap="round" stroke-linejoin="round"/>
<path d="M21.4817 4.3714L28.4531 15.1714L19.996 35.6" stroke="white" stroke-width="1.5" stroke-linecap="round" stroke-linejoin="round"/>
<path d="M18.4286 4.3714L11.4857 15.1714L20 35.6" stroke="white" stroke-width="1.5" stroke-linecap="round" stroke-linejoin="round"/>
<path d="M38.5156 15.1714H1.48706" stroke="white" stroke-width="1.5" stroke-linecap="round" stroke-linejoin="round"/>
</svg>
