<svg width="20" height="21" viewBox="0 0 20 21" fill="none" xmlns="http://www.w3.org/2000/svg">
<g clip-path="url(#clip0_231_89)">
<path d="M15.8054 12.4463C15.396 12.02 14.9021 11.792 14.3787 11.792C13.8595 11.792 13.3614 12.0158 12.9351 12.4421L11.6012 13.7717C11.4914 13.7127 11.3817 13.6578 11.2761 13.6029C11.1242 13.5269 10.9807 13.4552 10.8583 13.3792C9.6088 12.5856 8.47331 11.5514 7.38426 10.2133C6.85662 9.54639 6.50204 8.98498 6.24455 8.41513C6.59069 8.09854 6.91149 7.76929 7.22386 7.45271C7.34205 7.33452 7.46024 7.2121 7.57843 7.09391C8.46487 6.20747 8.46487 5.05932 7.57843 4.17288L6.42606 3.02051C6.29521 2.88966 6.16013 2.75458 6.0335 2.61951C5.78023 2.3578 5.5143 2.08764 5.23992 1.83437C4.83047 1.42915 4.34082 1.21387 3.82584 1.21387C3.31086 1.21387 2.81277 1.42915 2.39066 1.83437C2.38644 1.8386 2.38644 1.8386 2.38221 1.84282L0.947028 3.29067C0.406722 3.83097 0.0985794 4.48947 0.0310412 5.2535C-0.0702661 6.48607 0.292752 7.63422 0.571347 8.38558C1.25517 10.2302 2.27669 11.9398 3.80052 13.7717C5.64937 15.9794 7.87391 17.7227 10.415 18.9511C11.3859 19.4112 12.6818 19.9557 14.1296 20.0486C14.2183 20.0528 14.3111 20.057 14.3956 20.057C15.3707 20.057 16.1896 19.7067 16.8312 19.0102C16.8354 19.0017 16.8438 18.9975 16.8481 18.9891C17.0676 18.7231 17.3208 18.4825 17.5868 18.225C17.7683 18.052 17.954 17.8705 18.1355 17.6805C18.5534 17.2457 18.7729 16.7392 18.7729 16.22C18.7729 15.6966 18.5492 15.1943 18.1228 14.7722L15.8054 12.4463ZM17.3166 16.8912C17.3124 16.8912 17.3124 16.8954 17.3166 16.8912C17.152 17.0685 16.9831 17.2289 16.8016 17.4061C16.5272 17.6679 16.2486 17.9422 15.9869 18.2504C15.5606 18.7063 15.0583 18.9215 14.3998 18.9215C14.3365 18.9215 14.2689 18.9215 14.2056 18.9173C12.9519 18.8371 11.7869 18.3475 10.9131 17.9296C8.52397 16.773 6.42606 15.131 4.68273 13.0499C3.24333 11.315 2.28091 9.71102 1.64352 7.98879C1.25095 6.93773 1.10743 6.11883 1.17075 5.34636C1.21296 4.85249 1.40291 4.44304 1.75327 4.09268L3.19267 2.65327C3.39951 2.4591 3.61901 2.35357 3.83429 2.35357C4.10022 2.35357 4.3155 2.51398 4.45057 2.64905C4.45479 2.65327 4.45901 2.6575 4.46323 2.66172C4.72072 2.90232 4.96555 3.15137 5.22304 3.4173C5.35389 3.55238 5.48897 3.68745 5.62405 3.82675L6.77642 4.97912C7.22386 5.42656 7.22386 5.84023 6.77642 6.28767C6.65401 6.41009 6.53581 6.5325 6.4134 6.65069C6.05882 7.01371 5.72113 7.3514 5.3539 7.68065C5.34545 7.68909 5.33701 7.69331 5.33279 7.70175C4.96977 8.06477 5.03731 8.41935 5.11329 8.65995C5.11751 8.67262 5.12173 8.68528 5.12595 8.69794C5.42565 9.42398 5.84777 10.1078 6.48938 10.9225L6.4936 10.9267C7.65864 12.3619 8.88699 13.4805 10.242 14.3374C10.415 14.4471 10.5923 14.5358 10.7612 14.6202C10.9131 14.6962 11.0567 14.7679 11.1791 14.8439C11.1959 14.8524 11.2128 14.865 11.2297 14.8735C11.3732 14.9452 11.5083 14.979 11.6476 14.979C11.998 14.979 12.2175 14.7595 12.2892 14.6877L13.7329 13.2441C13.8764 13.1006 14.1043 12.9275 14.3702 12.9275C14.632 12.9275 14.8472 13.0921 14.9781 13.2357C14.9823 13.2399 14.9823 13.2399 14.9865 13.2441L17.3124 15.57C17.7472 16.0005 17.7472 16.4437 17.3166 16.8912Z" fill="white"/>
<path d="M10.8089 4.81502C11.9148 5.00075 12.9195 5.52417 13.7215 6.32619C14.5235 7.1282 15.0427 8.13284 15.2327 9.23877C15.2791 9.51737 15.5197 9.71154 15.7941 9.71154C15.8278 9.71154 15.8574 9.70732 15.8912 9.7031C16.2035 9.65244 16.4104 9.35697 16.3597 9.0446C16.1318 7.7065 15.4986 6.48659 14.5319 5.51995C13.5653 4.55331 12.3454 3.92014 11.0073 3.6922C10.6949 3.64155 10.4037 3.84838 10.3488 4.15652C10.2939 4.46467 10.4965 4.76437 10.8089 4.81502Z" fill="white"/>
<path d="M19.9756 8.88004C19.6 6.67661 18.5616 4.67157 16.966 3.07598C15.3704 1.48039 13.3653 0.441986 11.1619 0.0663049C10.8538 0.0114301 10.5625 0.222487 10.5076 0.53063C10.457 0.842994 10.6638 1.13425 10.9762 1.18913C12.9432 1.5226 14.7372 2.45547 16.1639 3.87799C17.5907 5.30474 18.5193 7.09872 18.8528 9.06577C18.8992 9.34436 19.1398 9.53854 19.4142 9.53854C19.448 9.53854 19.4775 9.53432 19.5113 9.53009C19.8195 9.48366 20.0305 9.18818 19.9756 8.88004Z" fill="white"/>
</g>
<defs>
<clipPath id="clip0_231_89">
<rect width="20" height="20" fill="white" transform="translate(0 0.0576172)"/>
</clipPath>
</defs>
</svg>
