<svg width="30" height="30" viewBox="0 0 30 30" fill="none" xmlns="http://www.w3.org/2000/svg">
<path fill-rule="evenodd" clip-rule="evenodd" d="M15 30C23.2843 30 30 23.2843 30 15C30 6.71573 23.2843 0 15 0C6.71572 0 0 6.71573 0 15C0 23.2843 6.71572 30 15 30ZM17.3152 11.5894C18.5938 10.3108 18.5938 8.23768 17.3152 6.959C16.0366 5.68034 13.9635 5.68034 12.6848 6.959C11.4062 8.23768 11.4062 10.3108 12.6848 11.5894L15 13.9046L17.3152 11.5894ZM18.4106 17.3152C19.6893 18.5939 21.7624 18.5939 23.041 17.3152C24.3196 16.0366 24.3196 13.9635 23.041 12.6848C21.7624 11.4062 19.6893 11.4062 18.4106 12.6848L16.0954 15.0001L18.4106 17.3152ZM17.3152 23.041C18.5938 21.7624 18.5938 19.6893 17.3152 18.4106L15 16.0954L12.6848 18.4106C11.4062 19.6893 11.4062 21.7624 12.6848 23.041C13.9635 24.3197 16.0366 24.3197 17.3152 23.041ZM6.95898 17.3152C5.68035 16.0366 5.68035 13.9635 6.95898 12.6848C8.23768 11.4062 10.3108 11.4062 11.5894 12.6848L13.9046 15.0001L11.5894 17.3152C10.3108 18.5939 8.23768 18.5939 6.95898 17.3152Z" fill="#26505E"/>
</svg>
