<svg width="30" height="31" viewBox="0 0 30 31" fill="none" xmlns="http://www.w3.org/2000/svg">
<g clip-path="url(#clip0_217_301)">
<path d="M15.0008 29.7999C22.6934 29.7999 28.9294 23.5639 28.9294 15.8713C28.9294 8.17878 22.6934 1.94275 15.0008 1.94275C7.3083 1.94275 1.07227 8.17878 1.07227 15.8713C1.07227 23.5639 7.3083 29.7999 15.0008 29.7999Z" stroke="white" stroke-width="1.5" stroke-linecap="round" stroke-linejoin="round"/>
<path d="M15.0017 21.2284C17.9603 21.2284 20.3588 18.83 20.3588 15.8713C20.3588 12.9126 17.9603 10.5142 15.0017 10.5142C12.043 10.5142 9.64453 12.9126 9.64453 15.8713C9.64453 18.83 12.043 21.2284 15.0017 21.2284Z" stroke="white" stroke-width="1.5" stroke-linecap="round" stroke-linejoin="round"/>
<path d="M9.64453 15.8713V3.01416" stroke="white" stroke-width="1.5" stroke-linecap="round" stroke-linejoin="round"/>
<path d="M15 10.5142H27.8571" stroke="white" stroke-width="1.5" stroke-linecap="round" stroke-linejoin="round"/>
<path d="M20.3594 15.8713V28.7285" stroke="white" stroke-width="1.5" stroke-linecap="round" stroke-linejoin="round"/>
<path d="M15.0017 21.2285H2.14453" stroke="white" stroke-width="1.5" stroke-linecap="round" stroke-linejoin="round"/>
</g>
<defs>
<clipPath id="clip0_217_301">
<rect width="30" height="30" fill="white" transform="translate(0 0.871338)"/>
</clipPath>
</defs>
</svg>
