<svg width="40" height="40" viewBox="0 0 40 40" fill="none" xmlns="http://www.w3.org/2000/svg">
<g clip-path="url(#clip0_428_1463)">
<path d="M4.28449 4.28564L14.0273 14.0285" stroke="white" stroke-width="1.5" stroke-linecap="round" stroke-linejoin="round"/>
<path d="M35.7109 4.2854L25.9681 14.0283" stroke="white" stroke-width="1.5" stroke-linecap="round" stroke-linejoin="round"/>
<path d="M35.7109 35.714L25.9681 25.9712" stroke="white" stroke-width="1.5" stroke-linecap="round" stroke-linejoin="round"/>
<path d="M4.28449 35.714L14.0273 25.9712" stroke="white" stroke-width="1.5" stroke-linecap="round" stroke-linejoin="round"/>
<path d="M19.9989 38.5713C9.74217 38.5713 1.42746 30.2566 1.42746 19.9999C1.42746 9.74318 9.74217 1.42847 19.9989 1.42847C30.2556 1.42847 38.5703 9.74318 38.5703 19.9999C38.5703 30.2566 30.2556 38.5713 19.9989 38.5713Z" stroke="white" stroke-width="1.5" stroke-linecap="round" stroke-linejoin="round"/>
<path d="M20.0011 28.4287C15.3461 28.4287 11.5725 24.6551 11.5725 20.0001C11.5725 15.3451 15.3461 11.5715 20.0011 11.5715C24.6561 11.5715 28.4297 15.3451 28.4297 20.0001C28.4297 24.6551 24.6561 28.4287 20.0011 28.4287Z" stroke="white" stroke-width="1.5" stroke-linecap="round" stroke-linejoin="round"/>
</g>
<defs>
<clipPath id="clip0_428_1463">
<rect width="40" height="40" fill="white" transform="matrix(-1 0 0 1 40 0)"/>
</clipPath>
</defs>
</svg>
