<svg width="40" height="41" viewBox="0 0 40 41" fill="none" xmlns="http://www.w3.org/2000/svg">
<path d="M30.3996 5.07153H9.59964C9.1201 5.0847 8.6504 5.21053 8.2285 5.43885C7.80661 5.66717 7.44437 5.99157 7.17106 6.38582L1.97107 13.5858C1.58494 14.1315 1.39211 14.7904 1.42316 15.4581C1.45422 16.1259 1.70739 16.7641 2.14249 17.2715L17.7425 35.243C18.0096 35.5871 18.3518 35.8656 18.743 36.0572C19.1342 36.2488 19.564 36.3484 19.9996 36.3484C20.4352 36.3484 20.8651 36.2488 21.2563 36.0572C21.6475 35.8656 21.9897 35.5871 22.2568 35.243L37.8568 17.2715C38.2919 16.7641 38.545 16.1259 38.5761 15.4581C38.6072 14.7904 38.4143 14.1315 38.0282 13.5858L32.8282 6.38582C32.5549 5.99157 32.1927 5.66717 31.7708 5.43885C31.3489 5.21053 30.8792 5.0847 30.3996 5.07153V5.07153Z" stroke="white" stroke-width="1.5" stroke-linecap="round" stroke-linejoin="round"/>
<path d="M18.5144 5.04297L11.543 15.843L20.0001 36.2715" stroke="white" stroke-width="1.5" stroke-linecap="round" stroke-linejoin="round"/>
<path d="M21.5714 5.04297L28.5143 15.843L20 36.2715" stroke="white" stroke-width="1.5" stroke-linecap="round" stroke-linejoin="round"/>
<path d="M1.48438 15.843H38.5129" stroke="white" stroke-width="1.5" stroke-linecap="round" stroke-linejoin="round"/>
</svg>
