<svg width="100" height="100" viewBox="0 0 100 100" fill="none" xmlns="http://www.w3.org/2000/svg">
<g opacity="0.2">
<path d="M3.57227 28.5713V10.7141C3.57227 8.81974 4.32481 7.00293 5.66436 5.66338C7.00391 4.32384 8.82072 3.57129 10.7151 3.57129H28.5723" stroke="#CE9E6E" stroke-width="1.5" stroke-linecap="round" stroke-linejoin="round"/>
<path d="M96.4297 28.5713V10.7141C96.4297 8.81974 95.6771 7.00293 94.3376 5.66338C92.998 4.32384 91.1812 3.57129 89.2868 3.57129H71.4297" stroke="#CE9E6E" stroke-width="1.5" stroke-linecap="round" stroke-linejoin="round"/>
<path d="M3.57227 71.4287V89.2859C3.57227 91.1803 4.32481 92.9971 5.66436 94.3366C7.00391 95.6762 8.82072 96.4287 10.7151 96.4287H28.5723" stroke="#CE9E6E" stroke-width="1.5" stroke-linecap="round" stroke-linejoin="round"/>
<path d="M96.4297 71.4287V89.2859C96.4297 91.1803 95.6771 92.9971 94.3376 94.3366C92.998 95.6762 91.1812 96.4287 89.2868 96.4287H71.4297" stroke="#CE9E6E" stroke-width="1.5" stroke-linecap="round" stroke-linejoin="round"/>
<path d="M7.14453 53.5714H25.0017L35.716 25L50.0017 64.2857L64.2874 35.7143L75.0017 53.5714H92.8588" stroke="#CE9E6E" stroke-width="1.5" stroke-linecap="round" stroke-linejoin="round"/>
</g>
</svg>
