<svg width="37" height="38" viewBox="0 0 37 38" fill="none" xmlns="http://www.w3.org/2000/svg">
<g clip-path="url(#clip0_305_1011)">
<path d="M20.3319 11.6177C20.9198 11.6177 21.3963 11.1412 21.3963 10.5534C21.3963 9.96554 20.9198 9.48901 20.3319 9.48901C19.7441 9.48901 19.2676 9.96554 19.2676 10.5534C19.2676 11.1412 19.7441 11.6177 20.3319 11.6177Z" fill="#26505E"/>
<path d="M24.5897 11.6177C25.1776 11.6177 25.6541 11.1412 25.6541 10.5534C25.6541 9.96554 25.1776 9.48901 24.5897 9.48901C24.0019 9.48901 23.5254 9.96554 23.5254 10.5534C23.5254 11.1412 24.0019 11.6177 24.5897 11.6177Z" fill="#26505E"/>
<path d="M28.8476 11.6177C29.4354 11.6177 29.9119 11.1412 29.9119 10.5534C29.9119 9.96554 29.4354 9.48901 28.8476 9.48901C28.2597 9.48901 27.7832 9.96554 27.7832 10.5534C27.7832 11.1412 28.2597 11.6177 28.8476 11.6177Z" fill="#26505E"/>
<path d="M23.9667 35.0335C25.719 35.0335 27.1446 33.6011 27.1446 31.8405V27.583C27.1446 27.1252 26.8518 26.7186 26.4176 26.5735L20.0466 24.4448C19.7347 24.3407 19.3925 24.3864 19.1189 24.5687L16.4096 26.3749C13.5019 24.9952 10.0652 21.589 8.6983 18.733L10.5039 16.0246C10.6862 15.7512 10.7319 15.4087 10.6278 15.0969L8.49906 8.72593C8.35395 8.29167 7.94744 7.9989 7.48955 7.9989H3.23213C1.47147 7.9989 0.0390625 9.4245 0.0390625 11.1769C0.0390625 17.0576 2.71301 23.0931 7.37531 27.7359C12.0325 32.3736 18.0799 35.0335 23.9667 35.0335ZM3.23213 10.1276H6.723L8.44371 15.2774L6.60401 18.0369C6.40958 18.3285 6.3712 18.6972 6.5014 19.0226C7.2092 20.792 8.62564 22.7822 10.4898 24.6264C12.3416 26.4584 14.3414 27.8594 16.121 28.5712C16.4463 28.7013 16.8151 28.6629 17.1066 28.4686L19.8662 26.6289L25.0159 28.3496V31.8405C25.0159 32.4373 24.5551 32.9048 23.9667 32.9048C12.7617 32.9048 2.16777 22.3454 2.16777 11.1769C2.16777 10.5885 2.63531 10.1276 3.23213 10.1276Z" fill="#26505E"/>
<path d="M19.926 22.1803C20.3237 22.345 20.7815 22.2539 21.0859 21.9496L25.0316 18.0039H28.8481C32.9954 18.0039 36.3696 14.6616 36.3696 10.5534C36.3696 6.44519 32.9954 3.10291 28.8481 3.10291H20.3333C16.2251 3.10291 12.8828 6.44519 12.8828 10.5534C12.8828 14.3003 15.6631 17.41 19.2689 17.9281V21.1969C19.2689 21.6274 19.5283 22.0155 19.926 22.1803ZM15.0115 10.5534C15.0115 7.61897 17.3989 5.23162 20.3333 5.23162H28.8481C31.8217 5.23162 34.2409 7.61897 34.2409 10.5534C34.2409 13.4878 31.8217 15.8752 28.8481 15.8752H24.5907C24.3084 15.8752 24.0377 15.9873 23.8382 16.1869L21.3977 18.6274V16.9395C21.3977 16.3517 20.9211 15.8752 20.3333 15.8752C17.3989 15.8752 15.0115 13.4878 15.0115 10.5534Z" fill="#26505E"/>
</g>
<defs>
<clipPath id="clip0_305_1011">
<rect width="36.33" height="36.33" fill="white" transform="translate(0.0390625 0.903198)"/>
</clipPath>
</defs>
</svg>
