<svg width="100" height="100" viewBox="0 0 100 100" fill="none" xmlns="http://www.w3.org/2000/svg">
<path d="M50.0008 96.4284C75.6426 96.4284 96.4294 75.6417 96.4294 49.9999C96.4294 24.3581 75.6426 3.57129 50.0008 3.57129C24.359 3.57129 3.57227 24.3581 3.57227 49.9999C3.57227 75.6417 24.359 96.4284 50.0008 96.4284Z" stroke="#CE9E6E" stroke-opacity="0.2" stroke-width="1.5" stroke-linecap="round" stroke-linejoin="round"/>
<path d="M50.0017 67.8569C59.8639 67.8569 67.8588 59.8619 67.8588 49.9997C67.8588 40.1375 59.8639 32.1426 50.0017 32.1426C40.1394 32.1426 32.1445 40.1375 32.1445 49.9997C32.1445 59.8619 40.1394 67.8569 50.0017 67.8569Z" stroke="#CE9E6E" stroke-opacity="0.2" stroke-width="1.5" stroke-linecap="round" stroke-linejoin="round"/>
<path d="M32.1445 49.9997V7.14258" stroke="#CE9E6E" stroke-opacity="0.2" stroke-width="1.5" stroke-linecap="round" stroke-linejoin="round"/>
<path d="M50 32.1426H92.8571" stroke="#CE9E6E" stroke-opacity="0.2" stroke-width="1.5" stroke-linecap="round" stroke-linejoin="round"/>
<path d="M67.8594 50V92.8571" stroke="#CE9E6E" stroke-opacity="0.2" stroke-width="1.5" stroke-linecap="round" stroke-linejoin="round"/>
<path d="M50.0017 67.8574H7.14453" stroke="#CE9E6E" stroke-opacity="0.2" stroke-width="1.5" stroke-linecap="round" stroke-linejoin="round"/>
</svg>
