<svg width="30" height="31" viewBox="0 0 30 31" fill="none" xmlns="http://www.w3.org/2000/svg">
<g clip-path="url(#clip0_267_1556)">
<path d="M15.0008 29.0702C22.6934 29.0702 28.9294 22.8341 28.9294 15.1416C28.9294 7.44905 22.6934 1.21301 15.0008 1.21301C7.3083 1.21301 1.07227 7.44905 1.07227 15.1416C1.07227 22.8341 7.3083 29.0702 15.0008 29.0702Z" stroke="white" stroke-width="1.5" stroke-linecap="round" stroke-linejoin="round"/>
<path d="M15.0012 1.21301C15.0012 1.21301 6.27976 8.90587 15.0012 15.1416C22.5012 20.4987 15.0012 29.0702 15.0012 29.0702" stroke="white" stroke-width="1.5" stroke-linecap="round" stroke-linejoin="round"/>
<path d="M19.2874 11.9273C20.4709 11.9273 21.4302 10.9679 21.4302 9.78446C21.4302 8.60099 20.4709 7.6416 19.2874 7.6416C18.1039 7.6416 17.1445 8.60099 17.1445 9.78446C17.1445 10.9679 18.1039 11.9273 19.2874 11.9273Z" stroke="white" stroke-width="1.5" stroke-linecap="round" stroke-linejoin="round"/>
<path d="M10.7151 22.6416C11.8986 22.6416 12.858 21.6822 12.858 20.4987C12.858 19.3153 11.8986 18.3559 10.7151 18.3559C9.53166 18.3559 8.57227 19.3153 8.57227 20.4987C8.57227 21.6822 9.53166 22.6416 10.7151 22.6416Z" stroke="white" stroke-width="1.5" stroke-linecap="round" stroke-linejoin="round"/>
</g>
<defs>
<clipPath id="clip0_267_1556">
<rect width="30" height="30" fill="white" transform="translate(0 0.141602)"/>
</clipPath>
</defs>
</svg>
