<svg width="30" height="31" viewBox="0 0 30 31" fill="none" xmlns="http://www.w3.org/2000/svg">
<g clip-path="url(#clip0_217_271)">
<path d="M1.07227 9.44275V4.08561C1.07227 3.51729 1.29803 2.97224 1.69989 2.57038C2.10176 2.16851 2.6468 1.94275 3.21512 1.94275H8.57227" stroke="white" stroke-width="1.5" stroke-linecap="round" stroke-linejoin="round"/>
<path d="M28.9297 9.44275V4.08561C28.9297 3.51729 28.7039 2.97224 28.3021 2.57038C27.9002 2.16851 27.3552 1.94275 26.7868 1.94275H21.4297" stroke="white" stroke-width="1.5" stroke-linecap="round" stroke-linejoin="round"/>
<path d="M1.07227 22.2999V27.6571C1.07227 28.2254 1.29803 28.7704 1.69989 29.1723C2.10176 29.5742 2.6468 29.7999 3.21512 29.7999H8.57227" stroke="white" stroke-width="1.5" stroke-linecap="round" stroke-linejoin="round"/>
<path d="M28.9297 22.2999V27.6571C28.9297 28.2254 28.7039 28.7704 28.3021 29.1723C27.9002 29.5742 27.3552 29.7999 26.7868 29.7999H21.4297" stroke="white" stroke-width="1.5" stroke-linecap="round" stroke-linejoin="round"/>
<path d="M2.14453 16.9428H7.50167L10.716 8.37134L15.0017 20.1571L19.2874 11.5856L22.5017 16.9428H27.8588" stroke="white" stroke-width="1.5" stroke-linecap="round" stroke-linejoin="round"/>
</g>
<defs>
<clipPath id="clip0_217_271">
<rect width="30" height="30" fill="white" transform="translate(0 0.871338)"/>
</clipPath>
</defs>
</svg>
