<svg width="160" height="160" viewBox="0 0 160 160" fill="none" xmlns="http://www.w3.org/2000/svg">
<path d="M97.5 0C99.4994 5.62207e-05 101.402 0.801224 102.852 2.20117C104.25 3.60111 105 5.55063 105 7.5V55.0518L152.5 55C154.499 55.0001 156.402 55.8012 157.852 57.2012C159.25 58.6011 160 60.5006 160 62.5V97.5C160 101.65 156.65 105 152.5 105H105V152.5C105 156.65 101.65 160 97.5 160H62.5C60.5006 160 58.6007 159.251 57.1992 157.801C55.8007 156.402 55 154.5 55 152.5L55.0488 105.052H7.5C3.40108 105.052 0.000123439 101.701 0 97.5518V62.5C2.76967e-05 60.5006 0.800845 58.6011 2.19922 57.2012C3.64972 55.8012 5.5495 55 7.5 55H55.0488V7.55176C55.0488 3.40128 58.4009 0.0517746 62.5488 0.0517578L97.5 0Z" fill="#D9D9D9"/>
</svg>
