<svg width="36" height="40" viewBox="0 0 36 40" fill="none" xmlns="http://www.w3.org/2000/svg">
<path d="M2.12905 40C2.24536 39.7991 2.21575 39.8432 2.17313 39.6364C2.12795 39.4118 2.0858 39.1867 2.04663 38.9611C2.0073 38.7356 1.971 38.5096 1.93768 38.2831C1.90436 38.0567 1.87396 37.83 1.84649 37.6029C1.81902 37.3757 1.79452 37.1484 1.77305 36.9207C1.75143 36.693 1.73278 36.4651 1.71716 36.2369C1.70165 36.0088 1.68906 35.7806 1.6794 35.5522C1.66974 35.3238 1.663 35.0953 1.65919 34.8668C1.65553 34.6382 1.65475 34.4097 1.65695 34.1811C1.65924 33.9525 1.66447 33.724 1.67267 33.4955C1.68082 33.2671 1.69199 33.0388 1.70615 32.8106C1.72014 32.5824 1.73722 32.3544 1.75733 32.1266C1.77733 31.8987 1.80031 31.6712 1.82627 31.4439C1.85223 31.2167 1.88117 30.9897 1.91297 30.7631C1.94494 30.5365 1.97983 30.3103 2.01764 30.0845C2.0553 29.8587 2.09599 29.6334 2.13965 29.4086C2.18331 29.1837 2.2299 28.9594 2.27942 28.7356C2.32877 28.5118 2.38116 28.2886 2.43653 28.0661C2.49173 27.8435 2.54992 27.6216 2.61097 27.4005C2.67203 27.1792 2.73596 26.9586 2.80276 26.7389C2.86956 26.5192 2.93918 26.3002 3.01168 26.0821C3.08417 25.864 3.15954 25.6467 3.23773 25.4303C3.31581 25.2139 3.39671 24.9985 3.48049 24.7839C3.56427 24.5694 3.65086 24.3559 3.74023 24.1433C3.82944 23.9307 3.92147 23.7192 4.01626 23.5088C4.11122 23.2984 4.20878 23.0891 4.30901 22.881C4.40924 22.6728 4.51223 22.4658 4.61789 22.2602C4.72345 22.0544 4.83172 21.8498 4.94271 21.6465C5.0537 21.4433 5.16736 21.2413 5.28362 21.0407C5.39978 20.84 5.5186 20.6407 5.64003 20.4429C5.76147 20.245 5.88546 20.0484 6.01196 19.8534C6.13856 19.6584 6.26768 19.4649 6.39919 19.2728C6.53071 19.0808 6.66473 18.8904 6.80131 18.7014C9.42052 15.0477 12.375 12.7314 16.393 10.5718C18.8374 9.25783 21.2312 8.24396 23.9584 7.56296C26.0147 7.04956 28.1055 6.84161 30.1886 6.46451C28.1606 8.68065 26.3151 9.81276 25.0921 12.7305C24.9562 13.0547 24.8332 13.3146 24.9868 13.6452L25.1366 13.6333L25.1278 13.6373C27.2523 12.26 29.164 10.4036 31.1169 8.81444C32.551 7.64715 34.1242 6.59485 35.4962 5.36546C35.7278 5.15787 35.8843 4.99451 36 4.7135C34.3835 3.63561 24.6155 0.441665 22.4807 5.75036e-07C24.1271 2.07813 26.9028 3.16836 29.305 4.28546C27.6665 4.70198 25.9082 4.79213 24.2452 5.17578C18.6901 6.45782 12.842 9.23367 8.78217 13.0271C3.30438 18.1455 -0.00688357 25.3353 1.07448e-05 32.6179C0.00251777 34.9711 0.252277 38.2461 2.12905 40Z" fill="#CE9E6E"/>
</svg>
