<svg width="175" height="40" viewBox="0 0 175 40" fill="none" xmlns="http://www.w3.org/2000/svg">
<path d="M56.5039 26.4569H68.4559V22.8569H60.7519V9.29688H56.5039V26.4569Z" fill="white"/>
<path d="M76.009 24.058C74.305 24.058 73.417 22.57 73.417 20.338C73.417 18.106 74.305 16.594 76.009 16.594C77.713 16.594 78.625 18.106 78.625 20.338C78.625 22.57 77.713 24.058 76.009 24.058ZM76.033 26.842C79.993 26.842 82.585 24.034 82.585 20.338C82.585 16.642 79.993 13.834 76.033 13.834C72.097 13.834 69.457 16.642 69.457 20.338C69.457 24.034 72.097 26.842 76.033 26.842Z" fill="white"/>
<path d="M89.848 30.7046C91.672 30.7046 93.28 30.2966 94.36 29.3366C95.344 28.4486 95.992 27.1046 95.992 25.2566V14.1686H92.248V15.4886H92.2C91.48 14.4566 90.376 13.8086 88.744 13.8086C85.696 13.8086 83.584 16.3526 83.584 19.9526C83.584 23.7206 86.152 25.7846 88.912 25.7846C90.4 25.7846 91.336 25.1846 92.056 24.3686H92.152V25.5926C92.152 27.0806 91.456 27.9446 89.8 27.9446C88.504 27.9446 87.856 27.3926 87.64 26.7446H83.848C84.232 29.3126 86.464 30.7046 89.848 30.7046ZM89.824 22.8806C88.36 22.8806 87.4 21.6806 87.4 19.8326C87.4 17.9606 88.36 16.7606 89.824 16.7606C91.456 16.7606 92.32 18.1526 92.32 19.8086C92.32 21.5366 91.528 22.8806 89.824 22.8806Z" fill="white"/>
<path d="M103.544 24.058C101.84 24.058 100.952 22.57 100.952 20.338C100.952 18.106 101.84 16.594 103.544 16.594C105.248 16.594 106.16 18.106 106.16 20.338C106.16 22.57 105.248 24.058 103.544 24.058ZM103.568 26.842C107.528 26.842 110.12 24.034 110.12 20.338C110.12 16.642 107.528 13.834 103.568 13.834C99.6322 13.834 96.9922 16.642 96.9922 20.338C96.9922 24.034 99.6322 26.842 103.568 26.842Z" fill="white"/>
<path d="M111.121 26.4569H115.033V14.1689H111.121V26.4569ZM111.121 12.4649H115.033V9.29688H111.121V12.4649Z" fill="white"/>
<path d="M116.031 30.5126H119.943V25.1846H119.991C120.759 26.2166 121.887 26.8406 123.471 26.8406C126.687 26.8406 128.823 24.2966 128.823 20.3126C128.823 16.6166 126.831 13.8086 123.567 13.8086C121.887 13.8086 120.687 14.5526 119.847 15.6566H119.775V14.1686H116.031V30.5126ZM122.463 23.8166C120.783 23.8166 119.823 22.4486 119.823 20.4566C119.823 18.4646 120.687 16.9526 122.391 16.9526C124.071 16.9526 124.863 18.3446 124.863 20.4566C124.863 22.5446 123.951 23.8166 122.463 23.8166Z" fill="white"/>
<path d="M135.8 26.8406C139.016 26.8406 141.392 25.4486 141.392 22.7606C141.392 19.6166 138.848 19.0646 136.688 18.7046C135.128 18.4166 133.736 18.2966 133.736 17.4326C133.736 16.6646 134.48 16.3046 135.44 16.3046C136.52 16.3046 137.264 16.6406 137.408 17.7446H141.008C140.816 15.3206 138.944 13.8086 135.464 13.8086C132.56 13.8086 130.16 15.1526 130.16 17.7446C130.16 20.6246 132.44 21.2006 134.576 21.5606C136.208 21.8486 137.696 21.9686 137.696 23.0726C137.696 23.8646 136.952 24.2966 135.776 24.2966C134.48 24.2966 133.664 23.6966 133.52 22.4726H129.824C129.944 25.1846 132.2 26.8406 135.8 26.8406Z" fill="white"/>
<path d="M146.711 26.8179C148.415 26.8179 149.495 26.1459 150.383 24.9459H150.455V26.4579H154.199V14.1699H150.287V21.0339C150.287 22.4979 149.471 23.5059 148.127 23.5059C146.879 23.5059 146.279 22.7619 146.279 21.4179V14.1699H142.391V22.2339C142.391 24.9699 143.879 26.8179 146.711 26.8179Z" fill="white"/>
<path d="M155.199 26.4566H159.111V19.5686C159.111 18.1046 159.831 17.0726 161.055 17.0726C162.231 17.0726 162.783 17.8406 162.783 19.1606V26.4566H166.695V19.5686C166.695 18.1046 167.391 17.0726 168.639 17.0726C169.815 17.0726 170.367 17.8406 170.367 19.1606V26.4566H174.279V18.4646C174.279 15.7046 172.887 13.8086 170.103 13.8086C168.519 13.8086 167.199 14.4806 166.239 15.9686H166.191C165.567 14.6486 164.343 13.8086 162.735 13.8086C160.959 13.8086 159.783 14.6486 159.015 15.9206H158.943V14.1686H155.199V26.4566Z" fill="white"/>
<path d="M25.7331 1.05386L21.8001 0L18.4857 12.3696L15.4934 1.20224L11.5603 2.2561L14.7933 14.3216L6.7407 6.26898L3.86151 9.14817L12.6942 17.981L1.69448 15.0336L0.640625 18.9666L12.6592 22.187C12.5216 21.5935 12.4488 20.9751 12.4488 20.3397C12.4488 15.8421 16.0948 12.1961 20.5924 12.1961C25.09 12.1961 28.736 15.8421 28.736 20.3397C28.736 20.971 28.6641 21.5856 28.5282 22.1756L39.4509 25.1023L40.5047 21.1693L28.4383 17.9361L39.4388 14.9885L38.3849 11.0555L26.319 14.2885L34.3716 6.23592L31.4924 3.35673L22.7822 12.067L25.7331 1.05386Z" fill="#26505E"/>
<path d="M28.5181 22.2217C28.1809 23.6473 27.469 24.928 26.4922 25.9541L34.4052 33.8672L37.2844 30.988L28.5181 22.2217Z" fill="#26505E"/>
<path d="M26.4123 26.0371C25.4237 27.0468 24.1744 27.8003 22.7734 28.1886L25.6528 38.9346L29.5858 37.8807L26.4123 26.0371Z" fill="#26505E"/>
<path d="M22.6266 28.2274C21.9766 28.3945 21.2953 28.4833 20.5932 28.4833C19.841 28.4833 19.1126 28.3813 18.4211 28.1904L15.5391 38.9462L19.4721 40L22.6266 28.2274Z" fill="#26505E"/>
<path d="M18.281 28.1511C16.9014 27.7435 15.6743 26.9804 14.7059 25.9678L6.77344 33.9003L9.65263 36.7795L18.281 28.1511Z" fill="#26505E"/>
<path d="M14.6405 25.8971C13.6887 24.8781 12.9954 23.6145 12.6654 22.2109L1.70703 25.1472L2.76088 29.0802L14.6405 25.8971Z" fill="#26505E"/>
</svg>
