<svg width="174" height="41" viewBox="0 0 174 41" fill="none" xmlns="http://www.w3.org/2000/svg">
<path d="M56.1445 27.0125H68.0965V23.4125H60.3925V9.85254H56.1445V27.0125Z" fill="white"/>
<path d="M75.6497 24.6136C73.9457 24.6136 73.0577 23.1256 73.0577 20.8936C73.0577 18.6616 73.9457 17.1496 75.6497 17.1496C77.3537 17.1496 78.2657 18.6616 78.2657 20.8936C78.2657 23.1256 77.3537 24.6136 75.6497 24.6136ZM75.6737 27.3976C79.6337 27.3976 82.2257 24.5896 82.2257 20.8936C82.2257 17.1976 79.6337 14.3896 75.6737 14.3896C71.7377 14.3896 69.0977 17.1976 69.0977 20.8936C69.0977 24.5896 71.7377 27.3976 75.6737 27.3976Z" fill="white"/>
<path d="M89.4886 31.2603C91.3126 31.2603 92.9206 30.8523 94.0006 29.8923C94.9846 29.0043 95.6326 27.6603 95.6326 25.8123V14.7243H91.8886V16.0443H91.8406C91.1206 15.0123 90.0166 14.3643 88.3846 14.3643C85.3366 14.3643 83.2246 16.9083 83.2246 20.5083C83.2246 24.2763 85.7926 26.3403 88.5526 26.3403C90.0406 26.3403 90.9766 25.7403 91.6966 24.9243H91.7926V26.1483C91.7926 27.6363 91.0966 28.5003 89.4406 28.5003C88.1446 28.5003 87.4966 27.9483 87.2806 27.3003H83.4886C83.8726 29.8683 86.1046 31.2603 89.4886 31.2603ZM89.4646 23.4363C88.0006 23.4363 87.0406 22.2363 87.0406 20.3883C87.0406 18.5163 88.0006 17.3163 89.4646 17.3163C91.0966 17.3163 91.9606 18.7083 91.9606 20.3643C91.9606 22.0923 91.1686 23.4363 89.4646 23.4363Z" fill="white"/>
<path d="M103.185 24.6136C101.481 24.6136 100.593 23.1256 100.593 20.8936C100.593 18.6616 101.481 17.1496 103.185 17.1496C104.889 17.1496 105.801 18.6616 105.801 20.8936C105.801 23.1256 104.889 24.6136 103.185 24.6136ZM103.209 27.3976C107.169 27.3976 109.76 24.5896 109.76 20.8936C109.76 17.1976 107.169 14.3896 103.209 14.3896C99.2728 14.3896 96.6328 17.1976 96.6328 20.8936C96.6328 24.5896 99.2728 27.3976 103.209 27.3976Z" fill="white"/>
<path d="M110.762 27.0125H114.674V14.7245H110.762V27.0125ZM110.762 13.0205H114.674V9.85254H110.762V13.0205Z" fill="white"/>
<path d="M115.672 31.0683H119.584V25.7403H119.632C120.4 26.7723 121.528 27.3963 123.112 27.3963C126.328 27.3963 128.464 24.8523 128.464 20.8683C128.464 17.1723 126.472 14.3643 123.208 14.3643C121.528 14.3643 120.328 15.1083 119.488 16.2123H119.416V14.7243H115.672V31.0683ZM122.104 24.3723C120.424 24.3723 119.464 23.0043 119.464 21.0123C119.464 19.0203 120.328 17.5083 122.032 17.5083C123.712 17.5083 124.504 18.9003 124.504 21.0123C124.504 23.1003 123.592 24.3723 122.104 24.3723Z" fill="white"/>
<path d="M135.441 27.3963C138.657 27.3963 141.033 26.0043 141.033 23.3163C141.033 20.1723 138.489 19.6203 136.329 19.2603C134.769 18.9723 133.377 18.8523 133.377 17.9883C133.377 17.2203 134.121 16.8603 135.081 16.8603C136.161 16.8603 136.905 17.1963 137.049 18.3003H140.649C140.457 15.8763 138.585 14.3643 135.105 14.3643C132.201 14.3643 129.801 15.7083 129.801 18.3003C129.801 21.1803 132.081 21.7563 134.217 22.1163C135.849 22.4043 137.337 22.5243 137.337 23.6283C137.337 24.4203 136.593 24.8523 135.417 24.8523C134.121 24.8523 133.305 24.2523 133.161 23.0283H129.465C129.585 25.7403 131.841 27.3963 135.441 27.3963Z" fill="white"/>
<path d="M146.351 27.3736C148.055 27.3736 149.135 26.7016 150.023 25.5016H150.095V27.0136H153.839V14.7256H149.927V21.5896C149.927 23.0536 149.111 24.0616 147.767 24.0616C146.519 24.0616 145.919 23.3176 145.919 21.9736V14.7256H142.031V22.7896C142.031 25.5256 143.519 27.3736 146.351 27.3736Z" fill="white"/>
<path d="M154.84 27.0123H158.752V20.1243C158.752 18.6603 159.472 17.6283 160.696 17.6283C161.872 17.6283 162.424 18.3963 162.424 19.7163V27.0123H166.336V20.1243C166.336 18.6603 167.032 17.6283 168.28 17.6283C169.456 17.6283 170.008 18.3963 170.008 19.7163V27.0123H173.92V19.0203C173.92 16.2603 172.528 14.3643 169.744 14.3643C168.16 14.3643 166.84 15.0363 165.88 16.5243H165.832C165.208 15.2043 163.984 14.3643 162.376 14.3643C160.6 14.3643 159.424 15.2043 158.656 16.4763H158.584V14.7243H154.84V27.0123Z" fill="white"/>
<path fill-rule="evenodd" clip-rule="evenodd" d="M20.2813 40.5566C31.327 40.5566 40.2813 31.6023 40.2813 20.5566C40.2813 9.51095 31.327 0.556641 20.2813 0.556641C9.23554 0.556641 0.28125 9.51095 0.28125 20.5566C0.28125 31.6023 9.23554 40.5566 20.2813 40.5566ZM26.5206 9.87348C26.8243 8.79469 25.7774 8.15677 24.8213 8.83794L11.4744 18.3462C10.4375 19.0849 10.6006 20.5566 11.7194 20.5566H15.234V20.5294H22.0838L16.5025 22.4987L14.042 31.2398C13.7383 32.3186 14.7851 32.9565 15.7413 32.2753L29.0882 22.7671C30.1251 22.0284 29.9619 20.5566 28.8432 20.5566H23.5134L26.5206 9.87348Z" fill="#26505E"/>
</svg>
