<svg width="50" height="50" viewBox="0 0 50 50" fill="none" xmlns="http://www.w3.org/2000/svg">
<path d="M10.7129 18.5V33.2857" stroke="#26505E" stroke-width="1.5" stroke-linecap="round" stroke-linejoin="round"/>
<path d="M25 18.5V33.2857" stroke="#26505E" stroke-width="1.5" stroke-linecap="round" stroke-linejoin="round"/>
<path d="M17.8555 21.6787V30.1073" stroke="#26505E" stroke-width="1.5" stroke-linecap="round" stroke-linejoin="round"/>
<path d="M39.2852 18.5V33.2857" stroke="#26505E" stroke-width="1.5" stroke-linecap="round" stroke-linejoin="round"/>
<path d="M32.1406 21.6787V30.1073" stroke="#26505E" stroke-width="1.5" stroke-linecap="round" stroke-linejoin="round"/>
<path d="M1.78516 14.2861V5.35756C1.78516 4.41036 2.16143 3.50195 2.8312 2.83218C3.50098 2.16241 4.40938 1.78613 5.35658 1.78613H14.2852" stroke="#26505E" stroke-width="1.5" stroke-linecap="round" stroke-linejoin="round"/>
<path d="M48.2129 14.2861V5.35756C48.2129 4.41036 47.8366 3.50195 47.1668 2.83218C46.4971 2.16241 45.5887 1.78613 44.6415 1.78613H35.7129" stroke="#26505E" stroke-width="1.5" stroke-linecap="round" stroke-linejoin="round"/>
<path d="M1.78516 35.7148V44.6434C1.78516 45.5906 2.16143 46.499 2.8312 47.1688C3.50098 47.8386 4.40938 48.2148 5.35658 48.2148H14.2852" stroke="#26505E" stroke-width="1.5" stroke-linecap="round" stroke-linejoin="round"/>
<path d="M48.2129 35.7148V44.6434C48.2129 45.5906 47.8366 46.499 47.1668 47.1688C46.4971 47.8386 45.5887 48.2148 44.6415 48.2148H35.7129" stroke="#26505E" stroke-width="1.5" stroke-linecap="round" stroke-linejoin="round"/>
</svg>
