<svg width="50" height="50" viewBox="0 0 50 50" fill="none" xmlns="http://www.w3.org/2000/svg">
<path d="M18.6782 8.03613L20.2139 4.07185C20.4729 3.40065 20.9286 2.82331 21.5212 2.41546C22.1139 2.00761 22.8159 1.78826 23.5353 1.78613H26.4639C27.1833 1.78826 27.8853 2.00761 28.478 2.41546C29.0707 2.82331 29.5263 3.40065 29.7853 4.07185L31.321 8.03613L36.5353 11.0361L40.7496 10.3933C41.4513 10.298 42.1655 10.4135 42.8015 10.7251C43.4374 11.0367 43.9663 11.5304 44.321 12.1433L45.7496 14.6433C46.1157 15.2659 46.2843 15.985 46.2333 16.7055C46.1823 17.426 45.914 18.1141 45.4639 18.679L42.8568 22.0004V28.0004L45.5353 31.3218C45.9855 31.8867 46.2537 32.5748 46.3048 33.2953C46.3558 34.0158 46.1871 34.7349 45.821 35.3576L44.3925 37.8576C44.0377 38.4705 43.5088 38.9641 42.8729 39.2757C42.237 39.5873 41.5228 39.7028 40.821 39.6076L36.6068 38.9647L31.3925 41.9647L29.8568 45.929C29.5978 46.6002 29.1421 47.1775 28.5494 47.5854C27.9568 47.9932 27.2548 48.2126 26.5353 48.2147H23.5353C22.8159 48.2126 22.1139 47.9932 21.5212 47.5854C20.9286 47.1775 20.4729 46.6002 20.2139 45.929L18.6782 41.9647L13.4639 38.9647L9.24961 39.6076C8.54788 39.7028 7.83368 39.5873 7.19776 39.2757C6.56184 38.9641 6.03291 38.4705 5.67818 37.8576L4.24961 35.3576C3.88354 34.7349 3.71489 34.0158 3.76589 33.2953C3.8169 32.5748 4.08518 31.8867 4.53532 31.3218L7.14247 28.0004V22.0004L4.46389 18.679C4.01375 18.1141 3.74547 17.426 3.69447 16.7055C3.64346 15.985 3.81211 15.2659 4.17818 14.6433L5.60675 12.1433C5.96148 11.5304 6.49041 11.0367 7.12633 10.7251C7.76225 10.4135 8.47645 10.298 9.17818 10.3933L13.3925 11.0361L18.6782 8.03613Z" stroke="#26505E" stroke-width="1.5" stroke-linecap="round" stroke-linejoin="round"/>
<path d="M24.9994 35.7147C30.9168 35.7147 35.7137 30.9178 35.7137 25.0004C35.7137 19.0831 30.9168 14.2861 24.9994 14.2861C19.0821 14.2861 14.2852 19.0831 14.2852 25.0004C14.2852 30.9178 19.0821 35.7147 24.9994 35.7147Z" stroke="#26505E" stroke-width="1.5" stroke-linecap="round" stroke-linejoin="round"/>
<path d="M25 14.2861V25.0004H35.7143" stroke="#26505E" stroke-width="1.5" stroke-linecap="round" stroke-linejoin="round"/>
<path d="M24.9992 25L17.4277 32.5714" stroke="#26505E" stroke-width="1.5" stroke-linecap="round" stroke-linejoin="round"/>
</svg>
