<svg width="50" height="51" viewBox="0 0 50 51" fill="none" xmlns="http://www.w3.org/2000/svg">
<path d="M18.6782 8.67749L20.2139 4.7132C20.4729 4.042 20.9286 3.46467 21.5212 3.05682C22.1139 2.64897 22.8159 2.42962 23.5353 2.42749H26.4639C27.1833 2.42962 27.8853 2.64897 28.478 3.05682C29.0707 3.46467 29.5263 4.042 29.7853 4.7132L31.321 8.67749L36.5353 11.6775L40.7496 11.0346C41.4513 10.9394 42.1655 11.0549 42.8015 11.3665C43.4374 11.6781 43.9663 12.1717 44.321 12.7846L45.7496 15.2846C46.1157 15.9073 46.2843 16.6263 46.2333 17.3468C46.1823 18.0674 45.914 18.7555 45.4639 19.3203L42.8568 22.6418V28.6418L45.5353 31.9632C45.9855 32.5281 46.2537 33.2162 46.3048 33.9367C46.3558 34.6572 46.1871 35.3762 45.821 35.9989L44.3925 38.4989C44.0377 39.1118 43.5088 39.6054 42.8729 39.9171C42.237 40.2287 41.5228 40.3442 40.821 40.2489L36.6068 39.6061L31.3925 42.6061L29.8568 46.5703C29.5978 47.2415 29.1421 47.8189 28.5494 48.2267C27.9568 48.6346 27.2548 48.8539 26.5353 48.8561H23.5353C22.8159 48.8539 22.1139 48.6346 21.5212 48.2267C20.9286 47.8189 20.4729 47.2415 20.2139 46.5703L18.6782 42.6061L13.4639 39.6061L9.24961 40.2489C8.54788 40.3442 7.83368 40.2287 7.19776 39.9171C6.56184 39.6054 6.03291 39.1118 5.67818 38.4989L4.24961 35.9989C3.88354 35.3762 3.71489 34.6572 3.76589 33.9367C3.8169 33.2162 4.08518 32.5281 4.53532 31.9632L7.14247 28.6418V22.6418L4.46389 19.3203C4.01375 18.7555 3.74547 18.0674 3.69447 17.3468C3.64346 16.6263 3.81211 15.9073 4.17818 15.2846L5.60675 12.7846C5.96148 12.1717 6.49041 11.6781 7.12633 11.3665C7.76225 11.0549 8.47645 10.9394 9.17818 11.0346L13.3925 11.6775L18.6782 8.67749Z" stroke="white" stroke-width="1.5" stroke-linecap="round" stroke-linejoin="round"/>
<path d="M24.9994 36.3561C30.9168 36.3561 35.7137 31.5591 35.7137 25.6418C35.7137 19.7244 30.9168 14.9275 24.9994 14.9275C19.0821 14.9275 14.2852 19.7244 14.2852 25.6418C14.2852 31.5591 19.0821 36.3561 24.9994 36.3561Z" stroke="white" stroke-width="1.5" stroke-linecap="round" stroke-linejoin="round"/>
<path d="M25 14.9275V25.6418H35.7143" stroke="white" stroke-width="1.5" stroke-linecap="round" stroke-linejoin="round"/>
<path d="M24.9992 25.6418L17.4277 33.2133" stroke="white" stroke-width="1.5" stroke-linecap="round" stroke-linejoin="round"/>
</svg>
