<svg width="30" height="31" viewBox="0 0 30 31" fill="none" xmlns="http://www.w3.org/2000/svg">
<g clip-path="url(#clip0_428_428)">
<path d="M15.0008 28.9934C22.6934 28.9934 28.9294 22.7573 28.9294 15.0648C28.9294 7.37226 22.6934 1.13623 15.0008 1.13623C7.3083 1.13623 1.07227 7.37226 1.07227 15.0648C1.07227 22.7573 7.3083 28.9934 15.0008 28.9934Z" stroke="white" stroke-width="1.5" stroke-linecap="round" stroke-linejoin="round"/>
<path d="M15.0012 1.13623C15.0012 1.13623 6.27976 8.82909 15.0012 15.0648C22.5012 20.4219 15.0012 28.9934 15.0012 28.9934" stroke="white" stroke-width="1.5" stroke-linecap="round" stroke-linejoin="round"/>
<path d="M19.2874 11.8507C20.4709 11.8507 21.4302 10.8913 21.4302 9.7078C21.4302 8.52433 20.4709 7.56494 19.2874 7.56494C18.1039 7.56494 17.1445 8.52433 17.1445 9.7078C17.1445 10.8913 18.1039 11.8507 19.2874 11.8507Z" stroke="white" stroke-width="1.5" stroke-linecap="round" stroke-linejoin="round"/>
<path d="M10.7151 22.5648C11.8986 22.5648 12.858 21.6054 12.858 20.4219C12.858 19.2384 11.8986 18.2791 10.7151 18.2791C9.53166 18.2791 8.57227 19.2384 8.57227 20.4219C8.57227 21.6054 9.53166 22.5648 10.7151 22.5648Z" stroke="white" stroke-width="1.5" stroke-linecap="round" stroke-linejoin="round"/>
</g>
<defs>
<clipPath id="clip0_428_428">
<rect width="30" height="30" fill="white" transform="translate(0 0.0649414)"/>
</clipPath>
</defs>
</svg>
