<svg width="50" height="50" viewBox="0 0 50 50" fill="none" xmlns="http://www.w3.org/2000/svg">
<path d="M26.6788 24.6429C26.1491 24.8729 25.5778 24.9916 25.0003 24.9916C24.4228 24.9916 23.8514 24.8729 23.3217 24.6429L2.96455 15.2143C2.63399 15.0476 2.35619 14.7924 2.1621 14.4771C1.968 14.1618 1.86523 13.7989 1.86523 13.4286C1.86523 13.0584 1.968 12.6954 2.1621 12.3801C2.35619 12.0649 2.63399 11.8096 2.96455 11.6429L23.3217 2.14291C23.8514 1.91288 24.4228 1.79419 25.0003 1.79419C25.5778 1.79419 26.1491 1.91288 26.6788 2.14291L47.036 11.5715C47.3666 11.7382 47.6443 11.9934 47.8384 12.3087C48.0325 12.624 48.1353 12.987 48.1353 13.3572C48.1353 13.7274 48.0325 14.0904 47.8384 14.4057C47.6443 14.721 47.3666 14.9762 47.036 15.1429L26.6788 24.6429Z" stroke="#26505E" stroke-width="1.5" stroke-linecap="round" stroke-linejoin="round"/>
<path d="M48.2137 26.25L26.428 36.2857C25.9627 36.4979 25.4573 36.6078 24.9459 36.6078C24.4345 36.6078 23.929 36.4979 23.4637 36.2857L1.78516 26.25" stroke="#26505E" stroke-width="1.5" stroke-linecap="round" stroke-linejoin="round"/>
<path d="M48.2137 37.8572L26.428 47.8929C25.9627 48.1051 25.4573 48.215 24.9459 48.215C24.4345 48.215 23.929 48.1051 23.4637 47.8929L1.78516 37.8572" stroke="#26505E" stroke-width="1.5" stroke-linecap="round" stroke-linejoin="round"/>
</svg>
