<svg width="100" height="100" viewBox="0 0 100 100" fill="none" xmlns="http://www.w3.org/2000/svg">
<g opacity="0.2">
<path d="M96.4479 76.6114L76.6083 63.3811C74.0906 61.7156 70.7157 62.2636 68.8544 64.6403L63.0753 72.0705C62.3326 73.0498 60.9826 73.3339 59.9081 72.737L58.8088 72.131C55.1646 70.1448 50.6303 67.6719 41.4946 58.5332C32.3588 49.3945 29.8809 44.8569 27.8946 41.2195L27.2918 40.1202C26.6868 39.046 26.9655 37.6902 27.9451 36.9416L35.3706 31.1645C37.7465 29.303 38.2952 25.9292 36.6316 23.4108L23.4009 3.57181C21.6959 1.00728 18.2753 0.23743 15.6359 1.82404L7.33967 6.80742C4.73295 8.33986 2.82051 10.8217 2.00335 13.7329C-0.984098 24.6176 1.26333 43.4031 28.9369 71.079C50.9506 93.0903 67.3388 99.0097 78.6029 99.0097C81.1952 99.0208 83.7775 98.6836 86.28 98.0069C89.1919 97.1907 91.6742 95.2782 93.2057 92.6708L98.1942 84.3798C99.7832 81.7399 99.0137 78.3172 96.4479 76.6114ZM95.3796 82.7038L90.4026 90.9998C89.3029 92.8817 87.5176 94.2654 85.4206 94.8611C75.3718 97.6199 57.8158 95.3348 31.248 68.7679C4.68031 42.201 2.39537 24.6471 5.15426 14.5971C5.75072 12.4977 7.13619 10.7101 9.0205 9.60872L17.3167 4.63184C18.462 3.94276 19.9466 4.27678 20.6864 5.38964L27.8735 16.1797L33.9059 25.2269C34.6283 26.3193 34.3909 27.7834 33.3603 28.5917L25.9331 34.3689C23.6729 36.0971 23.0274 39.2242 24.419 41.7061L25.0088 42.7776C27.0964 46.6062 29.6918 51.3691 39.1673 60.8427C48.6429 70.3163 53.4044 72.9118 57.2314 74.9991L58.3044 75.5904C60.7862 76.9818 63.9135 76.3365 65.6418 74.0763L71.4192 66.6494C72.2277 65.6194 73.6913 65.3823 74.7841 66.1039L94.622 79.3342C95.7357 80.0734 96.0697 81.5588 95.3796 82.7038Z" fill="white"/>
<path d="M56.5416 17.3408C71.8704 17.3579 84.2926 29.7799 84.3099 45.1083C84.3099 46.0104 85.0411 46.7416 85.9432 46.7416C86.8454 46.7416 87.5766 46.0104 87.5766 45.1083C87.5576 27.9764 73.674 14.093 56.5416 14.0742C55.6394 14.0742 54.9082 14.8054 54.9082 15.7075C54.9082 16.6096 55.6394 17.3408 56.5416 17.3408Z" fill="white"/>
<path d="M56.5396 27.1406C66.4581 27.1523 74.4957 35.1897 74.5074 45.1078C74.5074 46.0099 75.2388 46.7411 76.1407 46.7411C77.0429 46.7411 77.7741 46.0099 77.7741 45.1078C77.7605 33.3862 68.2614 23.8874 56.5396 23.874C55.6375 23.874 54.9062 24.6052 54.9062 25.5073C54.9062 26.4095 55.6375 27.1406 56.5396 27.1406Z" fill="white"/>
<path d="M56.5396 36.9414C61.0479 36.9468 64.7013 40.6001 64.7068 45.1084C64.7068 46.0105 65.4382 46.7417 66.3402 46.7417C67.2421 46.7417 67.9735 46.0105 67.9735 45.1084C67.9663 38.7968 62.8514 33.6819 56.5396 33.6748C55.6375 33.6748 54.9062 34.406 54.9062 35.3081C54.9062 36.2102 55.6375 36.9414 56.5396 36.9414Z" fill="white"/>
</g>
</svg>
