<svg width="30" height="30" viewBox="0 0 30 30" fill="none" xmlns="http://www.w3.org/2000/svg">
<g clip-path="url(#clip0_219_390)">
<path d="M15.0008 28.9286C22.6934 28.9286 28.9294 22.6925 28.9294 15C28.9294 7.30744 22.6934 1.07141 15.0008 1.07141C7.3083 1.07141 1.07227 7.30744 1.07227 15C1.07227 22.6925 7.3083 28.9286 15.0008 28.9286Z" stroke="white" stroke-width="1.5" stroke-linecap="round" stroke-linejoin="round"/>
<path d="M15.0012 1.07141C15.0012 1.07141 6.27976 8.76427 15.0012 15C22.5012 20.3571 15.0012 28.9286 15.0012 28.9286" stroke="white" stroke-width="1.5" stroke-linecap="round" stroke-linejoin="round"/>
<path d="M19.2874 11.7857C20.4709 11.7857 21.4302 10.8263 21.4302 9.64286C21.4302 8.45939 20.4709 7.5 19.2874 7.5C18.1039 7.5 17.1445 8.45939 17.1445 9.64286C17.1445 10.8263 18.1039 11.7857 19.2874 11.7857Z" stroke="white" stroke-width="1.5" stroke-linecap="round" stroke-linejoin="round"/>
<path d="M10.7151 22.5001C11.8986 22.5001 12.858 21.5407 12.858 20.3572C12.858 19.1737 11.8986 18.2144 10.7151 18.2144C9.53166 18.2144 8.57227 19.1737 8.57227 20.3572C8.57227 21.5407 9.53166 22.5001 10.7151 22.5001Z" stroke="white" stroke-width="1.5" stroke-linecap="round" stroke-linejoin="round"/>
</g>
<defs>
<clipPath id="clip0_219_390">
<rect width="30" height="30" fill="white"/>
</clipPath>
</defs>
</svg>
