<svg width="30" height="31" viewBox="0 0 30 31" fill="none" xmlns="http://www.w3.org/2000/svg">
<g clip-path="url(#clip0_267_1502)">
<path d="M26.7857 3.35583L19.4785 10.663" stroke="white" stroke-width="1.5" stroke-linecap="round" stroke-linejoin="round"/>
<path d="M3.21484 3.35583L10.522 10.663" stroke="white" stroke-width="1.5" stroke-linecap="round" stroke-linejoin="round"/>
<path d="M3.21484 26.9273L10.522 19.6201" stroke="white" stroke-width="1.5" stroke-linecap="round" stroke-linejoin="round"/>
<path d="M26.7857 26.9273L19.4785 19.6201" stroke="white" stroke-width="1.5" stroke-linecap="round" stroke-linejoin="round"/>
<path d="M15.0008 29.0702C22.6934 29.0702 28.9294 22.8341 28.9294 15.1416C28.9294 7.44905 22.6934 1.21301 15.0008 1.21301C7.3083 1.21301 1.07227 7.44905 1.07227 15.1416C1.07227 22.8341 7.3083 29.0702 15.0008 29.0702Z" stroke="white" stroke-width="1.5" stroke-linecap="round" stroke-linejoin="round"/>
<path d="M15.0011 21.463C18.4923 21.463 21.3225 18.6328 21.3225 15.1416C21.3225 11.6504 18.4923 8.82019 15.0011 8.82019C11.5099 8.82019 8.67969 11.6504 8.67969 15.1416C8.67969 18.6328 11.5099 21.463 15.0011 21.463Z" stroke="white" stroke-width="1.5" stroke-linecap="round" stroke-linejoin="round"/>
</g>
<defs>
<clipPath id="clip0_267_1502">
<rect width="30" height="30" fill="white" transform="translate(0 0.141602)"/>
</clipPath>
</defs>
</svg>
