<svg width="50" height="50" viewBox="0 0 50 50" fill="none" xmlns="http://www.w3.org/2000/svg">
<circle cx="25" cy="25" r="25" fill="#26505E"/>
<path d="M50 25C50 11.1928 38.8071 0 25 0C11.1929 0 0 11.1929 0 25C0 33.1698 3.91922 40.4242 9.97983 44.9862C11.7032 44.0682 13.2128 42.8021 14.4138 41.2806C16.2992 38.892 17.4247 35.8759 17.4247 32.5966C17.4247 27.1349 14.3035 22.4025 9.74772 20.0848V13.1577C17.9294 15.8296 23.8406 23.5227 23.8406 32.5966C23.8406 32.922 23.8321 33.2453 23.817 33.567C23.5367 39.5662 20.6705 44.889 16.3083 48.4472C19.0154 49.4511 21.9435 50 25 50C28.056 50 30.9839 49.4512 33.6909 48.4475C29.0945 44.6985 26.1593 38.9905 26.1593 32.5966C26.1593 32.2712 26.1678 31.9479 26.1829 31.6262C26.5871 22.9776 32.364 15.7337 40.2523 13.1577V20.0848C38.4319 21.011 36.841 22.3228 35.5862 23.9126C33.7008 26.3013 32.5753 29.3173 32.5753 32.5966C32.5753 37.9646 35.5905 42.6281 40.0193 44.9868C46.0805 40.4249 50 33.1703 50 25ZM25 19.0019C21.1973 19.0019 18.1146 15.9192 18.1146 12.1164C18.1146 8.31366 21.1973 5.231 25 5.231C28.8027 5.231 31.8854 8.31366 31.8854 12.1164C31.8854 15.9191 28.8028 19.0019 25 19.0019Z" fill="#CE9E6E"/>
</svg>
