<svg width="220" height="220" viewBox="0 0 220 220" fill="none" xmlns="http://www.w3.org/2000/svg">
<circle cx="110" cy="110" r="110" fill="#CE9E6E"/>
<path d="M116.259 30.6959C115.113 30.6114 114.158 30.3568 113.394 29.9322C112.642 29.5085 112.082 28.9625 111.716 28.2942C111.35 27.6141 111.198 26.8665 111.258 26.0515L113.721 26.2333C113.695 26.5759 113.765 26.9194 113.93 27.2641C114.095 27.597 114.377 27.879 114.776 28.1104C115.186 28.3425 115.734 28.4839 116.419 28.5345C117.033 28.5798 117.553 28.5292 117.98 28.3825C118.406 28.2359 118.73 28.0282 118.952 27.7596C119.175 27.4791 119.299 27.1558 119.326 26.7897C119.36 26.329 119.193 25.9485 118.823 25.6481C118.454 25.3358 117.865 25.1142 117.055 24.9831L115.928 24.8109C114.695 24.613 113.731 24.1559 113.036 23.4395C112.354 22.7122 112.053 21.7994 112.134 20.7009C112.195 19.8741 112.442 19.1799 112.876 18.6181C113.31 18.0445 113.887 17.6239 114.608 17.3565C115.341 17.0781 116.18 16.9738 117.125 17.0435C118.105 17.1159 118.937 17.3495 119.62 17.7443C120.303 18.1392 120.817 18.664 121.161 19.3187C121.505 19.9617 121.646 20.7025 121.584 21.5411L119.122 21.3593C119.148 21.0049 119.083 20.6736 118.928 20.3652C118.785 20.0459 118.549 19.7851 118.22 19.5826C117.903 19.3692 117.485 19.2433 116.965 19.205C116.469 19.1683 116.049 19.2205 115.706 19.3615C115.364 19.5024 115.099 19.7085 114.913 19.9798C114.726 20.251 114.621 20.552 114.597 20.8827C114.567 21.2843 114.688 21.6495 114.961 21.9784C115.235 22.2955 115.688 22.5012 116.323 22.5955L117.449 22.7855C118.365 22.9244 119.16 23.179 119.833 23.5494C120.506 23.9197 121.012 24.3905 121.35 24.9617C121.699 25.5338 121.846 26.2037 121.789 26.9714C121.729 27.7864 121.463 28.4912 120.992 29.0858C120.521 29.6686 119.878 30.1021 119.061 30.3862C118.256 30.6711 117.322 30.7744 116.259 30.6959Z" fill="white"/>
<path d="M127.359 32.0905C126.486 31.9272 125.785 31.6815 125.256 31.3536C124.74 31.0162 124.393 30.5536 124.214 29.9658C124.037 29.3664 124.035 28.6069 124.207 27.6872L125.832 19.0992L128.102 19.524L126.447 28.2692C126.36 28.7348 126.415 29.1186 126.611 29.4204C126.822 29.7128 127.16 29.9026 127.625 29.9897L129.11 30.2674L128.721 32.3454L127.359 32.0905ZM123.479 23.2677L123.813 21.4866L130.518 22.7413L130.185 24.5224L123.479 23.2677Z" fill="white"/>
<path d="M134.949 34.0557L135.763 31.3139L135.371 31.1976L136.277 28.1493C136.435 27.6157 136.423 27.1795 136.239 26.8408C136.055 26.5022 135.691 26.2519 135.146 26.0901C134.862 26.0058 134.52 25.9103 134.119 25.8036C133.719 25.6969 133.31 25.5943 132.895 25.4956C132.494 25.3889 132.132 25.2997 131.807 25.228L132.404 23.2185C132.672 23.2734 132.974 23.3383 133.31 23.4134C133.646 23.4885 133.984 23.5766 134.324 23.6778C134.68 23.7709 135.011 23.863 135.317 23.9541C136.271 24.2373 137.023 24.5966 137.573 25.0318C138.135 25.4704 138.495 26.0037 138.655 26.6317C138.825 27.2631 138.783 28.0102 138.526 28.8731L136.822 34.6121L134.949 34.0557ZM131.898 33.409C131.228 33.2101 130.673 32.9155 130.233 32.5254C129.804 32.1386 129.513 31.6816 129.361 31.1546C129.22 30.6309 129.242 30.0568 129.428 29.4324C129.63 28.7512 129.96 28.2438 130.417 27.9101C130.886 27.5799 131.453 27.3963 132.119 27.3593C132.796 27.3256 133.544 27.4302 134.361 27.673L136.507 28.3103L136.087 29.7238L133.907 29.0763C133.362 28.9145 132.902 28.926 132.526 29.1108C132.164 29.2876 131.921 29.586 131.796 30.0061C131.672 30.4262 131.712 30.8089 131.919 31.1543C132.136 31.5031 132.517 31.7585 133.062 31.9203C133.392 32.0181 133.709 32.0507 134.016 32.0181C134.337 31.9775 134.63 31.8423 134.896 31.6124C135.177 31.3745 135.402 31.0092 135.574 30.5164L135.955 31.3525C135.706 31.9828 135.386 32.4806 134.993 32.8458C134.612 33.2144 134.159 33.4504 133.634 33.554C133.123 33.6495 132.545 33.6012 131.898 33.409Z" fill="white"/>
<path d="M139.068 35.5411L142.813 26.6512L144.614 27.4098L143.028 31.1753L142.979 31.1547C143.517 29.8776 144.196 29.0267 145.018 28.6017C145.84 28.1767 146.78 28.1872 147.838 28.6331L148.166 28.771L147.331 30.752L146.709 30.49C145.945 30.1681 145.263 30.1249 144.663 30.3604C144.078 30.5895 143.622 31.0916 143.296 31.8665L141.344 36.4997L139.068 35.5411Z" fill="white"/>
<path d="M149.314 40.534C148.527 40.1222 147.928 39.6821 147.518 39.2137C147.124 38.7403 146.928 38.1963 146.929 37.5818C146.935 36.9568 147.155 36.2299 147.589 35.4009L151.657 27.6648L153.703 28.7355L149.561 36.6132C149.341 37.033 149.281 37.4159 149.381 37.7621C149.496 38.1032 149.764 38.3836 150.184 38.6033L151.522 39.3033L150.541 41.1765L149.314 40.534ZM148.187 30.9621L149.027 29.3565L155.071 32.5192L154.231 34.1247L148.187 30.9621Z" fill="white"/>
<path d="M160.53 41.8303L162.297 33.0928L164.356 34.6695L162.914 41.4631L162.57 40.9764L163.91 42.0024L163.323 41.7763L169.293 38.4493L171.24 39.9396L163.506 44.109L160.53 41.8303ZM158.024 46.1545L161.275 41.9087L163.236 43.4099L159.985 47.6556L158.024 46.1545Z" fill="white"/>
<path d="M167.057 54.5658C166.457 53.9596 166.025 53.3292 165.761 52.6746C165.496 52.02 165.37 51.3702 165.382 50.7255C165.402 50.0723 165.539 49.4534 165.794 48.8685C166.056 48.2921 166.415 47.7789 166.87 47.3292L167.135 47.0668C167.606 46.6003 168.136 46.2431 168.723 45.995C169.328 45.747 169.952 45.6205 170.597 45.6156C171.259 45.6108 171.911 45.7483 172.555 46.0281C173.206 46.2996 173.82 46.7258 174.394 47.3067C174.969 47.8877 175.389 48.5054 175.653 49.1601C175.926 49.8064 176.052 50.4561 176.032 51.1092C176.029 51.7624 175.896 52.3856 175.633 52.9788C175.378 53.5637 175.015 54.0893 174.544 54.5558L174.279 54.8181C173.824 55.2679 173.303 55.6169 172.715 55.865C172.136 56.1215 171.52 56.2563 170.867 56.2696C170.222 56.2745 169.573 56.1412 168.922 55.8697C168.27 55.5982 167.648 55.1636 167.057 54.5658ZM168.56 53.079C168.985 53.5084 169.435 53.7788 169.912 53.8903C170.397 53.9934 170.875 53.9624 171.345 53.7974C171.823 53.6241 172.268 53.3334 172.681 52.9253C173.102 52.5088 173.393 52.0623 173.555 51.5858C173.733 51.1094 173.765 50.6281 173.651 50.1417C173.553 49.6555 173.3 49.2061 172.892 48.7935C172.483 48.381 172.033 48.1189 171.539 48.0074C171.062 47.896 170.581 47.9227 170.094 48.0876C169.616 48.2442 169.166 48.5307 168.745 48.9471C168.333 49.3553 168.037 49.7976 167.859 50.274C167.697 50.7504 167.665 51.2318 167.763 51.7181C167.869 52.196 168.135 52.6496 168.56 53.079Z" fill="white"/>
<path d="M173.353 61.821C172.685 60.9306 172.459 60.0188 172.677 59.0854C172.901 58.1616 173.592 57.2659 174.747 56.3986L179.223 53.0393L180.705 55.0142L176.059 58.5015C175.585 58.8569 175.306 59.2739 175.221 59.7524C175.145 60.2238 175.278 60.6869 175.619 61.1415C175.961 61.5962 176.385 61.8554 176.892 61.9191C177.406 61.9924 177.914 61.8406 178.416 61.4638L182.977 58.0405L184.459 60.0154L176.73 65.8168L175.557 64.254L178.839 61.7905L178.956 61.9468C178.179 62.5298 177.456 62.9173 176.786 63.1094C176.115 63.3016 175.498 63.2982 174.934 63.0995C174.371 62.9007 173.865 62.503 173.417 61.9062L173.353 61.821Z" fill="white"/>
<path d="M177.873 67.8033L186.182 62.9028L187.175 64.586L183.655 66.6617L183.628 66.6158C184.822 65.9119 185.875 65.6344 186.788 65.7835C187.701 65.9326 188.449 66.5018 189.033 67.4914L189.213 67.7974L187.362 68.8894L187.019 68.3079C186.597 67.5939 186.076 67.1522 185.453 66.983C184.847 66.818 184.182 66.949 183.458 67.3762L179.127 69.9302L177.873 67.8033Z" fill="white"/>
<path d="M183.645 78.7317L195.902 74.2324L196.772 76.6006L184.514 81.0999L183.645 78.7317ZM186.375 86.1697L190.307 80.4874L191.28 83.139L187.391 88.9381L186.375 86.1697ZM188.326 78.9058L190.244 78.2018L191.383 81.3037C191.542 81.7373 191.767 82.0771 192.059 82.3232C192.356 82.5803 192.698 82.7386 193.085 82.7982C193.473 82.8577 193.873 82.812 194.284 82.661C194.707 82.5059 195.046 82.2802 195.303 81.984C195.561 81.6878 195.719 81.3458 195.778 80.9581C195.842 80.5815 195.794 80.1764 195.635 79.7428L194.497 76.6408L196.514 75.9001L197.561 78.7519C197.92 79.7303 198.086 80.6283 198.058 81.446C198.034 82.2747 197.799 82.9918 197.353 83.5973C196.906 84.2027 196.238 84.6686 195.349 84.9951L195.082 85.0931C194.182 85.4236 193.369 85.4949 192.644 85.3069C191.923 85.1299 191.287 84.7387 190.737 84.1333C190.187 83.5279 189.732 82.7359 189.373 81.7576L188.326 78.9058Z" fill="white"/>
<path d="M187.899 93.7885C187.725 92.9779 187.712 92.2359 187.858 91.5626C188.007 90.9008 188.27 90.3177 188.646 89.8131C189.037 89.3176 189.499 88.9036 190.033 88.5711C190.57 88.2502 191.14 88.0252 191.742 87.8962L192.072 87.8254C192.697 87.6914 193.321 87.6608 193.942 87.7336C194.577 87.8155 195.163 88.005 195.699 88.3019C196.249 88.608 196.72 89.0278 197.113 89.5613C197.518 90.0924 197.803 90.7459 197.969 91.5218C198.188 92.5408 198.144 93.4404 197.839 94.2204C197.548 95.0095 197.075 95.656 196.419 96.1597C195.776 96.661 195.037 97.0009 194.203 97.1796L193.335 97.3657L191.545 89.0104L193.021 88.694L194.488 95.5381L193.598 94.9474C194.2 94.8184 194.697 94.6211 195.088 94.3556C195.479 94.0901 195.752 93.753 195.907 93.3444C196.064 92.9474 196.086 92.4825 195.972 91.9498C195.857 91.4171 195.639 90.9915 195.317 90.673C194.994 90.3546 194.58 90.1465 194.074 90.0489C193.583 89.9604 193.019 89.9844 192.382 90.1209C191.791 90.2474 191.284 90.453 190.861 90.7375C190.449 91.0196 190.151 91.3802 189.966 91.8194C189.793 92.2562 189.77 92.7699 189.897 93.3605C190.023 93.9511 190.242 94.4068 190.553 94.7278C190.876 95.0463 191.222 95.2204 191.592 95.2502L192.068 97.4736C191.39 97.4736 190.765 97.3288 190.195 97.0393C189.624 96.7498 189.139 96.3267 188.742 95.77C188.346 95.2249 188.065 94.5644 187.899 93.7885Z" fill="white"/>
<path d="M189.349 104.244C189.283 103.405 189.367 102.668 189.602 102.032C189.837 101.407 190.175 100.87 190.615 100.419C191.055 99.98 191.562 99.6369 192.137 99.3894C192.711 99.1419 193.305 98.9939 193.919 98.9453L194.256 98.9186C194.905 98.8672 195.533 98.9184 196.139 99.0723C196.758 99.2372 197.314 99.5079 197.807 99.8847C198.312 100.26 198.725 100.739 199.044 101.319C199.376 101.911 199.574 102.608 199.637 103.411C199.704 104.249 199.598 105.012 199.32 105.699C199.053 106.386 198.646 106.947 198.098 107.382C197.552 107.829 196.897 108.107 196.133 108.215L195.943 105.824C196.435 105.726 196.831 105.481 197.133 105.088C197.435 104.708 197.562 104.205 197.512 103.579C197.469 103.036 197.303 102.592 197.014 102.246C196.727 101.913 196.345 101.676 195.871 101.535C195.408 101.393 194.882 101.346 194.292 101.393C193.725 101.438 193.218 101.561 192.77 101.763C192.324 101.976 191.985 102.271 191.753 102.645C191.523 103.032 191.43 103.509 191.474 104.075C191.508 104.5 191.614 104.86 191.792 105.155C191.97 105.45 192.201 105.675 192.487 105.831C192.773 105.998 193.09 106.092 193.436 106.112L193.625 108.503C192.842 108.517 192.139 108.341 191.516 107.975C190.906 107.619 190.409 107.118 190.025 106.471C189.642 105.836 189.417 105.094 189.349 104.244Z" fill="white"/>
<path d="M189.391 115.182C189.437 114.331 189.613 113.587 189.919 112.951C190.226 112.315 190.622 111.784 191.107 111.36C191.604 110.935 192.154 110.621 192.758 110.416C193.361 110.222 193.982 110.143 194.621 110.177L194.994 110.197C195.656 110.232 196.276 110.383 196.855 110.651C197.445 110.932 197.959 111.309 198.396 111.783C198.845 112.269 199.182 112.845 199.407 113.509C199.645 114.174 199.742 114.914 199.698 115.73C199.655 116.546 199.48 117.272 199.173 117.908C198.878 118.545 198.483 119.076 197.986 119.5C197.5 119.936 196.949 120.257 196.333 120.462C195.729 120.667 195.096 120.752 194.434 120.716L194.061 120.696C193.423 120.663 192.814 120.512 192.235 120.244C191.656 119.987 191.142 119.622 190.693 119.147C190.255 118.673 189.918 118.104 189.68 117.439C189.443 116.774 189.347 116.022 189.391 115.182ZM191.502 115.294C191.47 115.898 191.573 116.413 191.811 116.841C192.061 117.269 192.406 117.602 192.844 117.839C193.294 118.076 193.808 118.21 194.388 118.241C194.979 118.272 195.505 118.188 195.967 117.987C196.439 117.799 196.817 117.499 197.1 117.087C197.394 116.687 197.556 116.198 197.587 115.618C197.618 115.039 197.509 114.529 197.259 114.089C197.021 113.661 196.677 113.322 196.228 113.073C195.791 112.824 195.276 112.684 194.685 112.653C194.105 112.622 193.579 112.701 193.107 112.889C192.646 113.09 192.268 113.39 191.974 113.79C191.692 114.19 191.534 114.691 191.502 115.294Z" fill="white"/>
<path d="M188.842 123.059L198.875 121.83L198.416 124.329L188.406 125.436L188.842 123.059ZM188.71 123.776L190.702 124.141L190.231 126.71L188.239 126.344L188.71 123.776ZM188.534 124.737L197.573 128.924L197.143 131.266L188.127 126.956L188.534 124.737Z" fill="white"/>
<path d="M185.559 134.968C185.814 134.179 186.173 133.53 186.636 133.02C187.096 132.521 187.615 132.147 188.193 131.898C188.779 131.664 189.386 131.536 190.015 131.515C190.64 131.505 191.246 131.595 191.832 131.784L192.153 131.888C192.762 132.084 193.317 132.369 193.819 132.742C194.328 133.131 194.741 133.587 195.057 134.112C195.381 134.652 195.579 135.252 195.653 135.91C195.738 136.572 195.659 137.281 195.415 138.036C195.095 139.028 194.608 139.785 193.954 140.309C193.307 140.847 192.575 141.17 191.755 141.279C190.947 141.392 190.138 141.317 189.326 141.055L188.481 140.783L191.105 132.651L192.542 133.114L190.392 139.775L189.917 138.819C190.503 139.008 191.032 139.086 191.503 139.051C191.975 139.017 192.38 138.861 192.718 138.584C193.053 138.319 193.304 137.927 193.471 137.409C193.638 136.89 193.662 136.412 193.541 135.975C193.421 135.538 193.166 135.151 192.777 134.814C192.396 134.492 191.895 134.231 191.275 134.031C190.7 133.845 190.158 133.77 189.649 133.805C189.152 133.844 188.713 134.007 188.334 134.295C187.966 134.587 187.689 135.021 187.504 135.595C187.318 136.17 187.28 136.674 187.389 137.108C187.509 137.545 187.722 137.869 188.028 138.079L187.33 140.243C186.742 139.904 186.273 139.467 185.924 138.931C185.574 138.395 185.366 137.787 185.299 137.106C185.229 136.436 185.316 135.723 185.559 134.968Z" fill="white"/>
<path d="M183.689 140.985L192.478 144.96L191.673 146.74L187.95 145.057L187.972 145.008C189.235 145.579 190.068 146.281 190.471 147.113C190.875 147.946 190.84 148.885 190.367 149.932L190.22 150.256L188.262 149.37L188.54 148.755C188.881 148 188.942 147.319 188.723 146.712C188.509 146.122 188.019 145.653 187.252 145.307L182.671 143.236L183.689 140.985Z" fill="white"/>
<path d="M177.484 145.395L179.303 146.472L178.379 148.031C178.204 148.327 178.1 148.596 178.067 148.838C178.017 149.084 178.04 149.324 178.135 149.559C178.219 149.788 178.388 150.026 178.641 150.272L185.894 157.584L184.69 159.616L177.114 151.804C176.589 151.273 176.231 150.751 176.039 150.238C175.837 149.719 175.794 149.177 175.908 148.612C176.017 148.057 176.273 147.438 176.678 146.755L177.484 145.395ZM179.408 150.024L181.089 151.02L180.039 152.793L178.357 151.797L179.408 150.024ZM179.833 149.306L189.543 151.424L188.275 153.564L178.647 151.308L179.833 149.306Z" fill="white"/>
<path d="M170.206 162.525L178.489 169.919L176.809 171.801L168.526 164.407L170.206 162.525ZM180.72 166.887L182.377 168.365L175.704 175.84L174.048 174.361L180.72 166.887Z" fill="white"/>
<path d="M161.208 170.888C161.855 170.333 162.515 169.947 163.187 169.73C163.859 169.513 164.516 169.433 165.158 169.491C165.808 169.557 166.416 169.739 166.981 170.034C167.537 170.337 168.023 170.731 168.44 171.217L168.683 171.5C169.114 172.004 169.433 172.557 169.638 173.161C169.843 173.781 169.924 174.413 169.883 175.057C169.841 175.717 169.657 176.358 169.332 176.98C169.015 177.611 168.546 178.192 167.926 178.724C167.306 179.256 166.659 179.631 165.988 179.848C165.323 180.074 164.666 180.154 164.016 180.087C163.365 180.037 162.753 179.86 162.18 179.555C161.615 179.26 161.116 178.86 160.685 178.357L160.442 178.073C160.026 177.588 159.715 177.043 159.509 176.44C159.294 175.844 159.204 175.219 159.237 174.567C159.278 173.923 159.457 173.286 159.775 172.655C160.092 172.024 160.57 171.435 161.208 170.888ZM162.584 172.493C162.125 172.886 161.824 173.317 161.678 173.784C161.541 174.261 161.538 174.739 161.669 175.22C161.808 175.709 162.066 176.174 162.444 176.615C162.829 177.064 163.254 177.387 163.717 177.582C164.18 177.794 164.658 177.86 165.151 177.78C165.643 177.717 166.109 177.497 166.55 177.119C166.991 176.741 167.284 176.31 167.43 175.826C167.576 175.359 167.583 174.876 167.453 174.379C167.331 173.891 167.078 173.422 166.692 172.972C166.314 172.532 165.894 172.206 165.432 171.994C164.968 171.799 164.49 171.732 163.998 171.795C163.514 171.867 163.043 172.1 162.584 172.493Z" fill="white"/>
<path d="M152.907 177.023C153.475 176.659 154.066 176.428 154.679 176.331C155.292 176.234 155.894 176.263 156.486 176.418C157.078 176.573 157.628 176.84 158.137 177.217C158.652 177.604 159.099 178.092 159.476 178.68L159.677 178.994C160.047 179.572 160.306 180.173 160.452 180.797C160.589 181.427 160.614 182.037 160.528 182.627C160.431 183.223 160.216 183.776 159.882 184.285C159.544 184.812 159.085 185.26 158.507 185.63C157.869 186.039 157.221 186.258 156.563 186.285C155.902 186.329 155.251 186.169 154.611 185.806C153.97 185.443 153.37 184.857 152.809 184.049L153.883 184.374L157.429 189.908L155.35 191.24L148.353 180.321L149.998 179.267L152.212 182.722L151.853 182.952C151.353 182.106 151.078 181.304 151.03 180.547C150.987 179.801 151.131 179.125 151.461 178.52C151.787 177.931 152.269 177.432 152.907 177.023ZM153.565 179.071C153.156 179.333 152.84 179.662 152.616 180.059C152.398 180.465 152.301 180.907 152.325 181.384C152.346 181.877 152.51 182.363 152.816 182.842L153.2 183.44C153.507 183.919 153.867 184.25 154.281 184.435C154.701 184.63 155.135 184.704 155.583 184.656C156.037 184.618 156.463 184.472 156.862 184.216C157.311 183.928 157.639 183.563 157.848 183.12C158.053 182.693 158.13 182.222 158.08 181.705C158.021 181.195 157.825 180.68 157.492 180.162C157.16 179.643 156.77 179.253 156.321 178.992C155.879 178.741 155.421 178.62 154.948 178.627C154.465 178.642 154.004 178.789 153.565 179.071Z" fill="white"/>
<path d="M141.563 183.454L142.772 186.046L143.142 185.873L144.486 188.755C144.721 189.26 145.02 189.578 145.382 189.71C145.744 189.842 146.183 189.787 146.698 189.547C146.966 189.422 147.286 189.266 147.656 189.08C148.027 188.894 148.401 188.701 148.777 188.499C149.148 188.313 149.478 188.139 149.769 187.978L150.655 189.878C150.418 190.014 150.149 190.166 149.848 190.332C149.546 190.499 149.235 190.657 148.913 190.808C148.585 190.973 148.276 191.124 147.986 191.259C147.085 191.68 146.284 191.909 145.583 191.949C144.872 191.993 144.248 191.833 143.713 191.468C143.166 191.109 142.703 190.521 142.322 189.706L139.792 184.28L141.563 183.454ZM144.275 181.915C144.909 181.619 145.519 181.472 146.108 181.472C146.685 181.477 147.205 181.626 147.669 181.92C148.122 182.218 148.486 182.663 148.761 183.253C149.062 183.897 149.151 184.496 149.03 185.049C148.898 185.607 148.596 186.12 148.122 186.59C147.637 187.064 147.009 187.481 146.236 187.842L144.207 188.788L143.584 187.451L145.645 186.49C146.16 186.25 146.497 185.936 146.656 185.548C146.809 185.176 146.793 184.792 146.608 184.394C146.423 183.997 146.138 183.738 145.755 183.616C145.361 183.499 144.906 183.561 144.391 183.801C144.08 183.947 143.82 184.133 143.613 184.36C143.399 184.604 143.269 184.899 143.223 185.248C143.17 185.612 143.244 186.035 143.442 186.517L142.602 186.145C142.371 185.508 142.281 184.923 142.332 184.389C142.373 183.86 142.556 183.383 142.88 182.957C143.198 182.548 143.664 182.2 144.275 181.915Z" fill="white"/>
<path d="M136.806 181.341L137.447 183.355L135.721 183.905C135.393 184.01 135.137 184.141 134.951 184.3C134.751 184.45 134.608 184.645 134.522 184.884C134.433 185.111 134.401 185.401 134.426 185.753L134.979 196.037L132.728 196.753L132.267 185.882C132.228 185.136 132.308 184.507 132.506 183.997C132.7 183.475 133.028 183.041 133.49 182.696C133.94 182.353 134.543 182.062 135.299 181.821L136.806 181.341ZM135.163 186.078L135.756 187.94L133.793 188.565L133.2 186.703L135.163 186.078ZM135.959 185.824L141.801 193.864L139.431 194.619L133.742 186.531L135.959 185.824Z" fill="white"/>
<path d="M116.574 196.256L119.49 197.871L119.721 199.776L117.275 202.041L116.098 200.448L118.191 199.263L118.127 198.734L115.812 198.084L116.574 196.256ZM120.054 203.261L119.989 199.922L121.532 198.769L124.712 199.761L123.93 201.574L121.85 200.359L121.423 200.679L122.027 203.004L120.054 203.261ZM124.34 196.693L121.489 198.416L119.716 197.665L118.981 194.408L120.943 194.205L120.927 196.587L121.418 196.796L123.149 195.137L124.34 196.693Z" fill="white"/>
<path d="M103.628 189.304C104.774 189.39 105.729 189.646 106.492 190.072C107.244 190.496 107.803 191.043 108.168 191.712C108.533 192.393 108.684 193.14 108.623 193.955L106.161 193.77C106.186 193.427 106.117 193.084 105.953 192.739C105.788 192.406 105.507 192.123 105.108 191.891C104.698 191.659 104.151 191.516 103.466 191.465C102.852 191.419 102.331 191.469 101.905 191.615C101.478 191.761 101.153 191.968 100.931 192.236C100.708 192.516 100.583 192.839 100.556 193.205C100.521 193.666 100.688 194.047 101.057 194.348C101.426 194.661 102.015 194.883 102.824 195.015L103.951 195.189C105.183 195.389 106.147 195.847 106.841 196.565C107.522 197.293 107.822 198.206 107.739 199.305C107.677 200.131 107.429 200.825 106.994 201.386C106.559 201.959 105.981 202.379 105.261 202.645C104.527 202.923 103.688 203.026 102.743 202.955C101.763 202.881 100.931 202.646 100.249 202.25C99.5659 201.855 99.0532 201.329 98.7106 200.674C98.3671 200.03 98.2269 199.289 98.29 198.451L100.752 198.636C100.726 198.99 100.79 199.322 100.945 199.63C101.087 199.95 101.323 200.211 101.652 200.414C101.968 200.628 102.386 200.754 102.906 200.794C103.402 200.831 103.822 200.779 104.165 200.639C104.508 200.498 104.773 200.293 104.959 200.022C105.146 199.751 105.252 199.45 105.277 199.119C105.307 198.718 105.186 198.352 104.914 198.023C104.641 197.706 104.187 197.499 103.553 197.404L102.427 197.212C101.511 197.072 100.717 196.816 100.044 196.445C99.3716 196.074 98.8667 195.602 98.5297 195.03C98.1809 194.458 98.0354 193.788 98.0931 193.02C98.1545 192.205 98.4213 191.501 98.8936 190.907C99.365 190.325 100.009 189.892 100.826 189.609C101.632 189.326 102.566 189.224 103.628 189.304Z" fill="white"/>
<path d="M92.5295 187.894C93.4024 188.058 94.1031 188.305 94.6316 188.634C95.1464 188.972 95.4929 189.435 95.6712 190.023C95.8474 190.623 95.8488 191.382 95.6753 192.301L94.0379 200.887L91.7684 200.459L93.4355 191.716C93.5233 191.251 93.4692 190.867 93.2731 190.565C93.0631 190.272 92.7254 190.082 92.2599 189.994L90.776 189.714L91.1678 187.637L92.5295 187.894ZM96.3963 196.722L96.0604 198.503L89.3568 197.238L89.6927 195.458L96.3963 196.722Z" fill="white"/>
<path d="M84.9411 185.917L84.1227 188.657L84.5142 188.774L83.6044 191.821C83.4451 192.354 83.457 192.791 83.6401 193.13C83.8231 193.468 84.187 193.719 84.7318 193.882C85.0155 193.967 85.3576 194.063 85.7582 194.17C86.1588 194.277 86.5667 194.38 86.982 194.48C87.3826 194.587 87.7451 194.677 88.0697 194.749L87.4699 196.758C87.2021 196.702 86.9003 196.637 86.5644 196.561C86.2285 196.486 85.8903 196.397 85.5499 196.295C85.1947 196.202 84.8639 196.109 84.5575 196.018C83.6043 195.733 82.8528 195.373 82.3032 194.937C81.7423 194.497 81.3826 193.963 81.2241 193.335C81.0543 192.703 81.0981 191.956 81.3557 191.094L83.0687 185.357L84.9411 185.917ZM87.9912 186.568C88.6607 186.768 89.2153 187.063 89.6548 187.454C90.0829 187.841 90.3728 188.299 90.5243 188.826C90.6645 189.35 90.6414 189.924 90.4551 190.548C90.2517 191.229 89.9211 191.736 89.4633 192.069C88.994 192.398 88.4265 192.581 87.7607 192.617C87.0835 192.65 86.3364 192.544 85.5193 192.3L83.3745 191.66L83.7964 190.247L85.9752 190.898C86.5199 191.06 86.9805 191.049 87.3569 190.865C87.7185 190.689 87.962 190.391 88.0874 189.971C88.2128 189.551 88.1726 189.168 87.9668 188.822C87.7497 188.473 87.3688 188.217 86.8241 188.055C86.495 187.957 86.1773 187.923 85.8711 187.956C85.5501 187.996 85.2565 188.131 84.9902 188.36C84.7091 188.597 84.4827 188.962 84.3109 189.455L83.9304 188.618C84.1803 187.988 84.5018 187.491 84.895 187.126C85.2768 186.758 85.7303 186.523 86.2554 186.42C86.7657 186.325 87.3443 186.375 87.9912 186.568Z" fill="white"/>
<path d="M80.8237 184.426L77.066 193.31L75.2662 192.549L76.8579 188.786L76.907 188.806C76.3672 190.083 75.6862 190.933 74.864 191.356C74.0418 191.78 73.1016 191.768 72.0436 191.321L71.7163 191.182L72.5537 189.203L73.1754 189.466C73.939 189.789 74.6211 189.833 75.2219 189.598C75.8071 189.37 76.2634 188.869 76.591 188.094L78.5494 183.464L80.8237 184.426Z" fill="white"/>
<path d="M70.5851 179.417C71.3715 179.83 71.9693 180.271 72.3785 180.74C72.7717 181.214 72.9675 181.759 72.9658 182.373C72.9587 182.998 72.7377 183.725 72.3027 184.553L68.2234 192.283L66.1787 191.209L70.3323 183.338C70.5525 182.918 70.6131 182.536 70.5141 182.189C70.399 181.848 70.1318 181.567 69.7123 181.347L68.3754 180.645L69.3583 178.773L70.5851 179.417ZM71.6979 188.991L70.8555 190.595L64.8157 187.424L65.6582 185.819L71.6979 188.991Z" fill="white"/>
<path d="M59.3718 178.105L57.5918 186.84L55.5347 185.26L56.987 178.468L57.3297 178.956L55.9912 177.928L56.5784 178.155L50.6032 181.473L48.6588 179.98L56.3989 175.822L59.3718 178.105ZM61.8834 173.784L58.6266 178.025L56.6681 176.521L59.9249 172.28L61.8834 173.784Z" fill="white"/>
<path d="M52.8634 165.36C53.4622 165.967 53.8934 166.598 54.1569 167.253C54.4204 167.908 54.5458 168.558 54.5331 169.203C54.5119 169.856 54.3736 170.475 54.1184 171.059C53.8549 171.635 53.4954 172.148 53.0401 172.597L52.7746 172.859C52.3024 173.325 51.7724 173.681 51.1844 173.928C50.5798 174.175 49.955 174.301 49.3101 174.305C48.6485 174.309 47.9962 174.17 47.3533 173.89C46.7019 173.617 46.0893 173.19 45.5154 172.608C44.9415 172.027 44.5228 171.408 44.2592 170.753C43.9873 170.106 43.8619 169.457 43.8831 168.803C43.8876 168.15 44.0216 167.527 44.2853 166.934C44.5405 166.35 44.9042 165.825 45.3764 165.359L45.6419 165.097C46.0972 164.648 46.6188 164.3 47.2068 164.053C47.7864 163.797 48.4028 163.663 49.0561 163.651C49.701 163.647 50.3491 163.781 51.0005 164.053C51.6519 164.326 52.2728 164.761 52.8634 165.36ZM51.3584 166.844C50.9342 166.414 50.4838 166.143 50.0072 166.031C49.5222 165.927 49.0446 165.958 48.5745 166.122C48.096 166.295 47.6501 166.585 47.237 166.992C46.8154 167.408 46.5234 167.854 46.3611 168.33C46.1819 168.807 46.1494 169.288 46.2633 169.774C46.3605 170.261 46.6128 170.711 47.0204 171.124C47.4279 171.537 47.8784 171.8 48.3717 171.912C48.8483 172.024 49.33 171.998 49.8169 171.834C50.2953 171.678 50.7453 171.392 51.1669 170.976C51.58 170.569 51.8761 170.127 52.0553 169.651C52.2176 169.174 52.2502 168.693 52.153 168.207C52.0474 167.729 51.7825 167.274 51.3584 166.844Z" fill="white"/>
<path d="M46.578 158.095C47.245 158.986 47.469 159.898 47.2501 160.831C47.024 161.755 46.3326 162.649 45.1757 163.515L40.6953 166.868L39.2158 164.891L43.867 161.41C44.3411 161.056 44.621 160.639 44.7068 160.161C44.7831 159.689 44.651 159.226 44.3104 158.771C43.9698 158.316 43.5461 158.056 43.0393 157.991C42.5253 157.918 42.0171 158.069 41.5145 158.445L36.9487 161.861L35.4693 159.884L43.2069 154.094L44.3777 155.659L41.0921 158.117L40.975 157.961C41.7525 157.379 42.4766 156.992 43.1471 156.801C43.8177 156.61 44.4347 156.614 44.9982 156.814C45.5618 157.014 46.0671 157.412 46.5141 158.009L46.578 158.095Z" fill="white"/>
<path d="M42.0659 152.107L33.7498 156.995L32.7595 155.31L36.282 153.24L36.309 153.286C35.1144 153.988 34.0608 154.264 33.1481 154.113C32.2354 153.963 31.4879 153.393 30.9058 152.402L30.7257 152.096L32.5789 151.007L32.921 151.589C33.3411 152.303 33.8622 152.746 34.4842 152.916C35.09 153.082 35.7554 152.952 36.4803 152.526L40.8145 149.978L42.0659 152.107Z" fill="white"/>
<path d="M36.3111 141.17L24.0469 145.651L23.1811 143.282L35.4453 138.801L36.3111 141.17ZM33.5918 133.728L29.6514 139.405L28.682 136.752L32.5797 130.958L33.5918 133.728ZM31.63 140.989L29.7111 141.69L28.5771 138.587C28.4185 138.153 28.1934 137.813 27.9016 137.566C27.6057 137.309 27.264 137.15 26.8763 137.09C26.4887 137.03 26.0891 137.075 25.6775 137.225C25.2548 137.38 24.9146 137.605 24.6571 137.901C24.3995 138.197 24.2407 138.538 24.1806 138.926C24.1164 139.302 24.1636 139.708 24.3221 140.141L25.4562 143.245L23.4372 143.983L22.3946 141.129C22.0369 140.151 21.8726 139.252 21.9016 138.435C21.9267 137.606 22.1628 136.889 22.6101 136.284C23.0574 135.68 23.726 135.215 24.616 134.889L24.8829 134.792C25.784 134.463 26.5969 134.393 27.3217 134.582C28.0424 134.76 28.6774 135.152 29.2268 135.758C29.7762 136.364 30.2297 137.157 30.5874 138.136L31.63 140.989Z" fill="white"/>
<path d="M32.078 126.106C32.2505 126.917 32.2631 127.659 32.1157 128.332C31.9658 128.993 31.7023 129.576 31.3252 130.08C30.934 130.575 30.471 130.988 29.9361 131.32C29.3988 131.64 28.8289 131.864 28.2266 131.992L27.8964 132.063C27.2709 132.196 26.6475 132.225 26.0264 132.152C25.3913 132.069 24.8059 131.879 24.2704 131.581C23.7208 131.274 23.2499 130.853 22.8578 130.319C22.4541 129.788 22.1697 129.134 22.0046 128.358C21.7877 127.338 21.8325 126.439 22.1389 125.659C22.4313 124.87 22.9054 124.225 23.5612 123.722C24.2055 123.222 24.9447 122.883 25.7788 122.705L26.6476 122.521L28.4255 130.879L26.9485 131.193L25.4922 124.346L26.3809 124.938C25.7786 125.067 25.2815 125.263 24.8899 125.528C24.4982 125.793 24.2248 126.13 24.0695 126.538C23.9117 126.935 23.8895 127.4 24.0029 127.933C24.1162 128.465 24.334 128.891 24.6561 129.21C24.9782 129.529 25.3919 129.738 25.8971 129.836C26.3884 129.925 26.9525 129.902 27.5897 129.767C28.1805 129.641 28.6878 129.436 29.1118 129.152C29.5241 128.871 29.8229 128.511 30.008 128.072C30.1815 127.635 30.2054 127.122 30.0798 126.531C29.9541 125.94 29.736 125.484 29.4255 125.163C29.1033 124.844 28.7574 124.669 28.3877 124.639L27.9146 122.415C28.5929 122.416 29.2172 122.561 29.7875 122.852C30.3578 123.142 30.8415 123.566 31.2385 124.123C31.6331 124.669 31.9129 125.33 32.078 126.106Z" fill="white"/>
<path d="M30.6434 115.649C30.7085 116.488 30.6233 117.225 30.3877 117.861C30.1511 118.485 29.8127 119.022 29.3726 119.472C28.9315 119.91 28.4235 120.253 27.8488 120.499C27.274 120.746 26.6796 120.893 26.0656 120.941L25.7291 120.967C25.0796 121.018 24.4519 120.965 23.8459 120.811C23.2272 120.645 22.6715 120.373 22.1789 119.996C21.6744 119.619 21.263 119.14 20.9446 118.559C20.6135 117.967 20.4167 117.27 20.3543 116.467C20.2891 115.629 20.3961 114.866 20.6753 114.179C20.9427 113.493 21.3505 112.933 21.8988 112.498C22.4462 112.052 23.1018 111.775 23.8656 111.668L24.0515 114.059C23.5602 114.157 23.1634 114.401 22.8613 114.793C22.5582 115.173 22.431 115.676 22.4797 116.302C22.5219 116.845 22.6871 117.289 22.9754 117.635C23.2627 117.969 23.6435 118.207 24.1178 118.348C24.5802 118.491 25.1066 118.539 25.697 118.493C26.2638 118.449 26.771 118.326 27.2187 118.125C27.6654 117.912 28.0049 117.618 28.2371 117.244C28.4684 116.858 28.562 116.381 28.518 115.814C28.4849 115.389 28.3797 115.029 28.2023 114.734C28.025 114.439 27.7936 114.214 27.5082 114.058C27.222 113.89 26.9058 113.796 26.5597 113.775L26.3738 111.384C27.1568 111.371 27.8595 111.548 28.482 111.915C29.0918 112.271 29.5882 112.773 29.9712 113.421C30.3532 114.056 30.5773 114.799 30.6434 115.649Z" fill="white"/>
<path d="M30.6195 104.71C30.5729 105.562 30.3959 106.305 30.0884 106.941C29.7808 107.576 29.3842 108.106 28.8984 108.53C28.4008 108.954 27.8499 109.268 27.2457 109.472C26.6421 109.664 26.021 109.743 25.3825 109.708L25.0099 109.688C24.3477 109.652 23.7274 109.499 23.149 109.23C22.5595 108.949 22.0464 108.571 21.6098 108.096C21.1619 107.609 20.8257 107.033 20.6011 106.369C20.3647 105.704 20.2687 104.963 20.3133 104.147C20.3579 103.331 20.534 102.605 20.8415 101.97C21.1373 101.333 21.5339 100.804 22.0315 100.38C22.5179 99.9441 23.0691 99.6243 23.6852 99.4208C24.2894 99.2166 24.9226 99.1326 25.5849 99.1688L25.9574 99.1891C26.596 99.224 27.2044 99.3759 27.7828 99.6447C28.3618 99.9017 28.8756 100.268 29.324 100.743C29.7607 101.218 30.0972 101.788 30.3336 102.453C30.5701 103.118 30.6654 103.871 30.6195 104.71ZM28.5086 104.595C28.5415 103.992 28.4393 103.476 28.2017 103.048C27.9523 102.619 27.6088 102.286 27.171 102.049C26.7215 101.811 26.207 101.676 25.6275 101.644C25.0362 101.612 24.5097 101.696 24.0481 101.896C23.5752 102.083 23.1971 102.383 22.9137 102.795C22.619 103.194 22.4559 103.683 22.4242 104.262C22.3926 104.842 22.5011 105.352 22.7498 105.792C22.9874 106.221 23.3306 106.56 23.7795 106.809C24.2166 107.059 24.7308 107.199 25.3221 107.232C25.9016 107.263 26.4277 107.185 26.9005 106.998C27.3622 106.798 27.7403 106.498 28.035 106.099C28.3177 105.699 28.4756 105.198 28.5086 104.595Z" fill="white"/>
<path d="M31.1795 96.8364L21.1445 98.0508L21.6068 95.5528L31.6191 94.4607L31.1795 96.8364ZM31.312 96.1202L29.3206 95.7517L29.7958 93.1838L31.7872 93.5523L31.312 96.1202ZM31.4898 95.1594L22.4569 90.9586L22.8901 88.6178L31.9003 92.9409L31.4898 95.1594Z" fill="white"/>
<path d="M34.4799 84.9309C34.2242 85.7195 33.8643 86.3685 33.4003 86.8779C32.94 87.376 32.4206 87.7492 31.8421 87.9974C31.2559 88.2306 30.6484 88.3573 30.0193 88.3775C29.3939 88.3863 28.7883 88.2958 28.2025 88.1058L27.8814 88.0017C27.273 87.8044 26.7183 87.5187 26.2171 87.1445C25.7083 86.7554 25.2963 86.2981 24.9811 85.7726C24.6583 85.2322 24.4605 84.6327 24.3877 83.9741C24.3037 83.3119 24.384 82.6034 24.6288 81.8485C24.9503 80.8571 25.4384 80.1003 26.0933 79.5781C26.7406 79.041 27.474 78.7185 28.2933 78.6107C29.1014 78.4992 29.911 78.575 30.7221 78.838L31.5671 79.112L28.9313 87.2403L27.4949 86.7745L29.654 80.1164L30.1281 81.0732C29.5423 80.8832 29.0135 80.8052 28.5419 80.839C28.0702 80.8728 27.6651 81.0278 27.3266 81.304C26.9917 81.5689 26.7402 81.9605 26.5721 82.4787C26.4041 82.9969 26.3799 83.4747 26.4996 83.9119C26.6193 84.3491 26.8734 84.7365 27.2619 85.0742C27.6428 85.3969 28.1431 85.6587 28.7627 85.8597C29.3373 86.046 29.8791 86.1221 30.3882 86.0879C30.886 86.0502 31.3248 85.8874 31.7045 85.5996C32.0729 85.3082 32.3502 84.8752 32.5365 84.3007C32.7228 83.7261 32.7618 83.2221 32.6534 82.7885C32.5337 82.3513 32.3213 82.0272 32.0162 81.8162L32.7176 79.6531C33.3046 79.9929 33.7727 80.431 34.1216 80.9675C34.4706 81.504 34.6778 82.1128 34.7433 82.7939C34.8125 83.4637 34.7247 84.176 34.4799 84.9309Z" fill="white"/>
<path d="M36.358 78.9153L27.5742 74.9281L28.3819 73.1487L32.1025 74.8376L32.0805 74.8861C30.8187 74.3134 29.9867 73.6105 29.5844 72.7776C29.1821 71.9447 29.2184 71.0051 29.6932 69.9591L29.8401 69.6355L31.7974 70.524L31.5184 71.1387C31.1757 71.8936 31.1138 72.5744 31.3327 73.181C31.5457 73.7719 32.0351 74.2412 32.8007 74.5887L37.3787 76.6668L36.358 78.9153Z" fill="white"/>
<path d="M42.566 74.516L40.7487 73.4358L41.6746 71.8781C41.8501 71.5829 41.9546 71.3144 41.9881 71.0725C42.0379 70.8265 42.0156 70.5859 41.9212 70.3507C41.8369 70.1216 41.6684 69.8836 41.4155 69.6368L34.1737 62.315L35.381 60.284L42.9447 68.1072C43.4689 68.6392 43.8265 69.1618 44.0176 69.6748C44.2187 70.194 44.2616 70.7361 44.1461 71.3013C44.0367 71.8562 43.7793 72.4747 43.3738 73.1568L42.566 74.516ZM40.6487 69.8837L38.9689 68.8853L40.0219 67.1138L41.7017 68.1123L40.6487 69.8837ZM40.2221 70.6015L30.5156 68.4692L31.7864 66.3313L41.4112 68.601L40.2221 70.6015Z" fill="white"/>
<path d="M49.8711 57.3959L41.5991 49.9895L43.2818 48.1101L51.5538 55.5165L49.8711 57.3959ZM39.3634 53.0191L37.709 51.5378L44.3925 44.0732L46.0469 45.5545L39.3634 53.0191Z" fill="white"/>
<path d="M58.8812 49.0458C58.233 49.5998 57.5729 49.9849 56.9007 50.2011C56.2286 50.4173 55.5714 50.496 54.9292 50.4373C54.2793 50.3697 53.6719 50.1877 53.1071 49.8915C52.5513 49.5876 52.0656 49.1925 51.65 48.7064L51.4076 48.4228C50.9767 47.9186 50.6589 47.3646 50.4542 46.7605C50.2508 46.1398 50.17 45.5076 50.212 44.8641C50.2553 44.2039 50.4399 43.5631 50.7658 42.9418C51.0839 42.3115 51.5536 41.7309 52.1748 41.1999C52.796 40.669 53.4426 40.2954 54.1148 40.0792C54.7792 39.854 55.4364 39.7753 56.0863 39.843C56.7375 39.894 57.3494 40.0721 57.9219 40.3773C58.4867 40.6735 58.9846 41.0737 59.4155 41.5779L59.6579 41.8614C60.0735 42.3476 60.3836 42.8927 60.5883 43.4967C60.802 44.0931 60.8917 44.7175 60.8575 45.37C60.8155 46.0135 60.6354 46.6505 60.3172 47.2808C59.9991 47.9111 59.5204 48.4994 58.8812 49.0458ZM57.5076 47.4388C57.9667 47.0463 58.2692 46.6164 58.415 46.149C58.5531 45.6726 58.557 45.1941 58.4266 44.7135C58.2885 44.2239 58.031 43.7585 57.6539 43.3174C57.2691 42.8672 56.845 42.5442 56.3815 42.3483C55.9194 42.1357 55.4416 42.0689 54.9482 42.1479C54.4561 42.2102 53.9895 42.4298 53.5484 42.8069C53.1072 43.184 52.8131 43.6146 52.666 44.0986C52.5202 44.566 52.5119 45.0484 52.6409 45.5457C52.7623 46.034 53.0154 46.5032 53.4001 46.9534C53.7772 47.3945 54.1968 47.7214 54.659 47.934C55.1224 48.1298 55.6002 48.1966 56.0923 48.1344C56.5767 48.0631 57.0485 47.8312 57.5076 47.4388Z" fill="white"/>
<path d="M67.1897 42.9231C66.6208 43.2865 66.0298 43.5164 65.4168 43.6129C64.8039 43.7093 64.2016 43.6794 63.61 43.5233C63.0184 43.3671 62.4684 43.1001 61.96 42.7222C61.4452 42.3343 60.9997 41.8459 60.6236 41.257L60.4227 40.9426C60.053 40.3637 59.7953 39.7624 59.6498 39.1386C59.5143 38.5085 59.4901 37.8985 59.5772 37.3089C59.6743 36.7128 59.8905 36.1602 60.2257 35.651C60.5645 35.1254 61.0234 34.6777 61.6023 34.3079C62.2411 33.8999 62.8893 33.6826 63.5469 33.656C64.2081 33.6131 64.8587 33.7737 65.4988 34.1378C66.1389 34.5018 66.7385 35.0885 67.2976 35.8978L66.2248 35.5713L62.6864 30.0318L64.7675 28.7026L71.7485 39.6317L70.1017 40.6837L67.8926 37.2253L68.2519 36.9957C68.7511 37.8433 69.0245 38.6454 69.0721 39.4019C69.1134 40.1485 68.9687 40.8241 68.6382 41.4287C68.3113 42.017 67.8285 42.5151 67.1897 42.9231ZM66.5349 40.875C66.9441 40.6136 67.261 40.2847 67.4856 39.8883C67.7039 39.4819 67.8012 39.0403 67.7777 38.5634C67.7578 38.0703 67.5948 37.5841 67.2888 37.105L66.9063 36.5062C66.6002 36.0271 66.2404 35.6948 65.8268 35.5093C65.4068 35.3138 64.973 35.2396 64.5252 35.2867C64.0711 35.3238 63.6444 35.4698 63.2452 35.7249C62.7961 36.0117 62.4669 36.3765 62.2579 36.8193C62.0524 37.2456 61.9742 37.7172 62.0232 38.234C62.0822 38.7443 62.2775 39.259 62.609 39.7781C62.9405 40.2971 63.3304 40.6874 63.7786 40.9492C64.2205 41.201 64.6781 41.3233 65.1513 41.3161C65.6345 41.3026 66.0957 41.1555 66.5349 40.875Z" fill="white"/>
<path d="M78.5472 36.5087L77.3421 33.9147L76.9716 34.0869L75.6318 31.2029C75.3973 30.6981 75.0992 30.3796 74.7374 30.2473C74.3756 30.115 73.9369 30.1686 73.4213 30.4081C73.1528 30.5329 72.833 30.6879 72.4621 30.8733C72.0911 31.0587 71.7173 31.2519 71.3406 31.453C70.9697 31.6384 70.6388 31.8117 70.3481 31.9729L69.4649 30.0718C69.7019 29.9355 69.9712 29.7843 70.2727 29.6181C70.5742 29.4519 70.8861 29.294 71.2083 29.1443C71.5363 28.9789 71.8453 28.8288 72.1353 28.6941C73.0376 28.275 73.839 28.0463 74.5395 28.0082C75.2508 27.9651 75.874 28.1261 76.4093 28.4912C76.9553 28.8513 77.4179 29.4395 77.7971 30.2558L80.3194 35.6854L78.5472 36.5087ZM75.8324 38.044C75.1987 38.3384 74.5878 38.4851 73.9997 38.4841C73.4223 38.4781 72.902 38.328 72.4389 38.0338C71.9865 37.7347 71.6231 37.2897 71.3487 36.699C71.0493 36.0545 70.9605 35.4559 71.0824 34.903C71.215 34.3452 71.5186 33.832 71.993 33.3634C72.4783 32.8899 73.1075 32.4735 73.8809 32.1143L75.9109 31.1712L76.5322 32.5085L74.4699 33.4665C73.9543 33.706 73.6168 34.0195 73.4573 34.407C73.3035 34.7788 73.3189 35.1634 73.5036 35.5608C73.6882 35.9582 73.9721 36.2181 74.3554 36.3404C74.7494 36.4577 75.2042 36.3966 75.7198 36.1571C76.0313 36.0124 76.291 35.8265 76.4989 35.5993C76.7125 35.3564 76.8429 35.0608 76.89 34.7124C76.9429 34.3483 76.8703 33.925 76.6722 33.4424L77.5119 33.8163C77.7426 34.4535 77.8317 35.0389 77.7793 35.5726C77.7376 36.1012 77.5543 36.5781 77.2294 37.0033C76.9103 37.4127 76.4447 37.7596 75.8324 38.044Z" fill="white"/>
<path d="M83.2988 38.6284L82.6602 36.6131L84.3876 36.0658C84.715 35.962 84.9717 35.831 85.1576 35.6727C85.3584 35.5222 85.5017 35.3276 85.5877 35.0892C85.6772 34.8621 85.7096 34.5723 85.6849 34.2198L85.1472 23.9357L87.3996 23.222L87.8443 34.0947C87.8818 34.8406 87.8013 35.4687 87.6027 35.9789C87.4076 36.5004 87.079 36.9337 86.6169 37.2789C86.1661 37.6205 85.5624 37.9111 84.806 38.1508L83.2988 38.6284ZM84.9481 33.8942L84.3579 32.0313L86.3224 31.4089L86.9126 33.2717L84.9481 33.8942ZM84.1522 34.1464L78.3223 26.0981L80.6932 25.3469L86.3707 33.4435L84.1522 34.1464Z" fill="white"/>
<path d="M103.555 23.7436L100.642 22.1243L100.414 20.2193L102.862 17.958L104.037 19.5528L101.942 20.734L102.006 21.2632L104.32 21.9164L103.555 23.7436ZM100.086 16.7339L100.146 20.0725L98.6015 21.2236L95.4226 20.2265L96.2076 18.4149L98.2858 19.6332L98.7128 19.3137L98.1122 16.9881L100.086 16.7339ZM95.7901 23.2957L98.6437 21.5763L100.416 22.3303L101.146 25.5886L99.1839 25.7878L99.2028 23.4059L98.7125 23.1963L96.9786 24.8531L95.7901 23.2957Z" fill="white"/>
<circle cx="110" cy="110" r="40" fill="white"/>
<path d="M150 110C150 87.9084 132.091 70 110 70C87.9086 70 70 87.9086 70 110C70 123.072 76.2708 134.679 85.9677 141.978C88.7252 140.509 91.1404 138.483 93.0621 136.049C96.0787 132.227 97.8795 127.401 97.8795 122.155C97.8795 113.416 92.8857 105.844 85.5964 102.136V91.0522C98.687 95.3273 108.145 107.636 108.145 122.155C108.145 122.675 108.131 123.192 108.107 123.707C107.659 133.306 103.073 141.822 96.0932 147.516C100.425 149.122 105.11 150 110 150C114.89 150 119.574 149.122 123.905 147.516C116.551 141.518 111.855 132.385 111.855 122.155C111.855 121.634 111.869 121.117 111.893 120.602C112.539 106.764 121.782 95.174 134.404 91.0522V102.136C131.491 103.618 128.946 105.717 126.938 108.26C123.921 112.082 122.12 116.908 122.12 122.155C122.12 130.743 126.945 138.205 134.031 141.979C143.729 134.68 150 123.072 150 110ZM110 100.403C103.916 100.403 98.9833 95.4708 98.9833 89.3862C98.9833 83.3019 103.916 78.3696 110 78.3696C116.084 78.3696 121.017 83.3019 121.017 89.3862C121.017 95.4706 116.084 100.403 110 100.403Z" fill="#26505E"/>
</svg>
