<svg width="161" height="161" viewBox="0 0 161 161" fill="none" xmlns="http://www.w3.org/2000/svg">
<path d="M32.2617 0.34375C40.4893 0.442877 48.2217 3.71408 54.0703 9.5625C62.6614 18.1536 69.3693 28.1991 74.0283 39.4336C76.9361 46.4716 78.9516 53.7412 80.042 61.1758C80.1081 61.5393 80.637 61.5393 80.7031 61.1758C81.7936 53.7412 83.809 46.4717 86.7168 39.4336C91.3759 28.199 98.0836 18.1537 106.675 9.5625C112.59 3.61476 120.52 0.34376 128.913 0.34375C146.261 0.34375 160.601 14.8829 160.37 32.2305C160.271 40.4582 157 48.1905 151.151 54.0391C142.56 62.6303 132.515 69.338 121.28 73.9971C114.242 76.9048 106.973 78.9203 99.5381 80.0107C99.1746 80.0768 99.1746 80.6058 99.5381 80.6719C106.973 81.7623 114.242 83.7778 121.28 86.6855C132.515 91.3446 142.56 98.0524 151.151 106.644C157.099 112.558 160.37 120.488 160.37 128.881C160.37 146.228 145.831 160.569 128.483 160.338C120.256 160.239 112.523 156.968 106.675 151.119C98.0837 142.528 91.3758 132.483 86.7168 121.248C83.8091 114.21 81.7935 106.94 80.7031 99.5059C80.6369 99.1426 80.1081 99.1426 80.042 99.5059C78.9516 106.94 76.9361 114.21 74.0283 121.248C69.3692 132.483 62.6615 142.528 54.0703 151.119C48.1557 157.067 40.2258 160.338 31.833 160.338C14.4855 160.338 0.144889 145.8 0.375977 128.452C0.475105 120.224 3.74614 112.492 9.59473 106.644C18.1859 98.0524 28.2312 91.3446 39.4658 86.6855C46.5039 83.7778 53.7734 81.7623 61.208 80.6719C61.5714 80.6058 61.5713 80.0769 61.208 80.0107C53.7734 78.9203 46.5039 76.9048 39.4658 73.9971C28.2313 69.338 18.1859 62.6302 9.59473 54.0391C3.64698 48.1244 0.375977 40.1937 0.375977 31.8008C0.376002 14.4534 14.9143 0.112711 32.2617 0.34375Z" fill="#D9D9D9"/>
</svg>
