<svg width="147" height="160" viewBox="0 0 147 160" fill="none" xmlns="http://www.w3.org/2000/svg">
<path d="M44.6621 27.2637C44.6621 2.94932 74.1842 -9.05114 91.3281 7.97949C101.774 18.441 98.852 30.5718 99.3271 34.0713L105.995 30.2227C124.288 19.7003 146.999 33.0696 146.999 53.8252C146.999 72.0424 130.333 78.949 129.669 79.5605L132.562 81.2236C156.808 95.1569 146.578 132.1 118.891 132.1C108.889 132.099 103.142 126.86 99.3271 125.04V132.737C99.3271 157.006 69.8282 169.073 52.6621 152.021C42.7686 142.112 44.9629 130.455 44.6621 128.513L41.7686 130.186C23.4908 140.691 0.753906 127.389 0.753906 106.594C0.753914 87.1539 18.6574 81.0485 20.3389 79.5615L13.6602 75.7129C0.607187 68.1938 -3.88018 51.4931 3.6582 38.4736C8.52271 30.066 17.6129 24.8379 27.3633 24.8379C36.8516 24.8379 42.53 29.6198 44.6621 30.5996V27.2637Z" fill="#D9D9D9"/>
</svg>
