<svg width="151" height="160" viewBox="0 0 151 160" fill="none" xmlns="http://www.w3.org/2000/svg">
<path d="M87.4277 0C89.2612 0 90.7498 1.4879 90.75 3.32129V52.1582L132.407 26.6748C133.972 25.7182 136.02 26.2112 136.975 27.7754L149.798 48.7373C150.256 49.4879 150.399 50.3912 150.193 51.248C149.987 52.1049 149.45 52.8446 148.699 53.3047L105.06 79.999L148.7 106.693C149.451 107.153 149.991 107.891 150.195 108.75C150.401 109.607 150.258 110.51 149.8 111.261L136.977 132.223C136.022 133.785 133.974 134.279 132.409 133.322L90.75 107.842V156.677C90.75 158.51 89.2613 159.998 87.4277 159.998H62.8594C61.0258 159.998 59.5372 158.51 59.5371 156.677V107.84L17.8779 133.323C16.3101 134.28 14.2672 133.785 13.3105 132.221L0.487305 111.261C0.0290733 110.51 -0.114118 109.607 0.0917969 108.748C0.297759 107.893 0.836235 107.152 1.58691 106.693L45.2275 79.999L1.58691 53.3066C0.836208 52.8466 0.297743 52.107 0.0917969 51.25C-0.114054 50.3932 0.0291061 49.4898 0.487305 48.7393L13.3105 27.7773C14.2672 26.2112 16.3101 25.7202 17.8779 26.6768L59.5371 52.1582V3.32129C59.5373 1.4879 61.0259 0 62.8594 0H87.4277Z" fill="#D9D9D9"/>
</svg>
